<?xml version="1.0" encoding="UTF-8" standalone="no"?>
<svg
   xmlns:dc="http://purl.org/dc/elements/1.1/"
   xmlns:cc="http://creativecommons.org/ns#"
   xmlns:rdf="http://www.w3.org/1999/02/22-rdf-syntax-ns#"
   xmlns:svg="http://www.w3.org/2000/svg"
   xmlns="http://www.w3.org/2000/svg"
   viewBox="0 0 1056 816"
   height="816"
   width="1056"
   xml:space="preserve"
   id="svg2"
   version="1.1"><metadata
     id="metadata8"><rdf:RDF><cc:Work
         rdf:about=""><dc:format>image/svg+xml</dc:format><dc:type
           rdf:resource="http://purl.org/dc/dcmitype/StillImage" /></cc:Work></rdf:RDF></metadata><defs
     id="defs6"><clipPath
       id="clipPath18"
       clipPathUnits="userSpaceOnUse"><path
         id="path16"
         d="m 173.095,381.382 c 50.077,10.285 92.552,-23.249 92.552,-23.249 v 0 c 53.206,-34.875 108.648,-32.639 108.648,-32.639 v 0 c 87.633,-1.341 139.051,59.913 139.051,59.913 v 0 c -49.63,-33.98 -104.625,-32.639 -104.625,-32.639 v 0 c -45.604,-4.024 -117.589,39.345 -117.589,39.345 v 0 c -24.215,12.556 -44.244,17.035 -60.498,17.035 v 0 c -40.469,-0.001 -57.539,-27.766 -57.539,-27.766" /></clipPath><radialGradient
       id="radialGradient28"
       spreadMethod="pad"
       gradientTransform="matrix(123.8814,0,0,-123.8814,343.2204,367.30646)"
       gradientUnits="userSpaceOnUse"
       r="1"
       cy="0"
       cx="0"
       fy="0"
       fx="0"><stop
         id="stop24"
         offset="0"
         style="stop-opacity:1;stop-color:#1c75bc" /><stop
         id="stop26"
         offset="1"
         style="stop-opacity:1;stop-color:#2b3990" /></radialGradient><clipPath
       id="clipPath38"
       clipPathUnits="userSpaceOnUse"><path
         id="path36"
         d="m 441.584,386.971 c -2.508,-0.133 -5.023,-0.163 -7.534,-0.099 v 0 c -11.804,0.301 -23.499,2.654 -34.726,6.235 v 0 c -9.498,3.03 -18.709,6.948 -27.561,11.526 v 0 c -7.383,3.824 -14.161,8.728 -21.651,12.351 v 0 c -11.258,5.447 -23.235,9.404 -35.562,11.546 v 0 c -10.268,1.783 -20.747,2.308 -31.143,1.576 v 0 c -8.344,-0.586 -16.634,-1.972 -24.714,-4.133 v 0 c -5.544,-1.483 -11.004,-3.321 -16.277,-5.589 v 0 c -1.466,-0.63 -2.92,-1.294 -4.347,-2.009 v 0 c -0.339,-0.17 -1.096,-0.776 -1.484,-0.777 v 0 c 52.87,0.112 101.046,-32.304 101.046,-32.304 v 0 c 44.935,-25.82 72.767,-22.466 72.767,-22.466 v 0 c 109.654,-0.671 90.205,86.515 90.205,86.515 v 0 c -2.682,-62.372 -59.019,-62.372 -59.019,-62.372" /></clipPath><radialGradient
       id="radialGradient48"
       spreadMethod="pad"
       gradientTransform="matrix(98.69207,0,0,-98.69207,369.26062,406.0141)"
       gradientUnits="userSpaceOnUse"
       r="1"
       cy="0"
       cx="0"
       fy="0"
       fx="0"><stop
         id="stop44"
         offset="0"
         style="stop-opacity:1;stop-color:#27aae1" /><stop
         id="stop46"
         offset="1"
         style="stop-opacity:1;stop-color:#1c75bc" /></radialGradient><clipPath
       id="clipPath58"
       clipPathUnits="userSpaceOnUse"><path
         id="path56"
         d="m 404.363,454.037 c -1.601,-0.38 -3.167,-1.177 -4.513,-2.103 v 0 c -2.892,-1.991 -4.783,-5.025 -5.071,-8.551 v 0 c -0.095,-1.159 -0.245,-2.478 0.208,-3.581 v 0 c 0.676,-1.644 2.268,-2.846 3.789,-3.671 v 0 c 3.788,-2.057 8.156,-1.173 11.789,0.794 v 0 c 1.664,0.902 2.79,2.469 4.118,3.768 v 0 c 1.6,1.564 3.273,3.055 5.012,4.464 v 0 c 3.25,2.633 6.743,4.996 10.488,6.869 v 0 c 0,0 -6.813,3.114 -16.286,3.114 v 0 c -2.961,0 -6.18,-0.304 -9.534,-1.103" /></clipPath><radialGradient
       id="radialGradient68"
       spreadMethod="pad"
       gradientTransform="matrix(14.440044,0,0,-14.440044,412.43002,445.04794)"
       gradientUnits="userSpaceOnUse"
       r="1"
       cy="0"
       cx="0"
       fy="0"
       fx="0"><stop
         id="stop64"
         offset="0"
         style="stop-opacity:1;stop-color:#27aae1" /><stop
         id="stop66"
         offset="1"
         style="stop-opacity:1;stop-color:#1c75bc" /></radialGradient><clipPath
       id="clipPath78"
       clipPathUnits="userSpaceOnUse"><path
         id="path76"
         d="m 424.522,498.155 c -3.605,-0.858 -7.148,-2.897 -9.857,-5.38 v 0 c -2.414,-2.211 -4.249,-4.998 -5.21,-8.135 v 0 c -0.585,-1.909 -0.845,-3.906 -0.845,-5.899 v 0 c 10e-4,-2.556 0.521,-5.258 2.466,-7.125 v 0 c 2.076,-1.992 4.759,-3.622 7.528,-4.414 v 0 c 2.764,-0.791 5.688,-0.8 8.495,-0.231 v 0 c 1.792,0.364 3.534,0.954 5.207,1.69 v 0 c 3.586,1.576 5.875,4.066 8.594,6.769 v 0 c 3.131,3.113 6.438,6.054 9.898,8.798 v 0 c 2.482,1.967 5.045,3.833 7.694,5.57 v 0 c 1.386,0.907 2.793,1.78 4.225,2.612 v 0 c 0.731,0.424 1.467,0.837 2.209,1.239 v 0 c 0.312,0.168 1.988,1.309 2.27,1.181 v 0 c -0.052,0.024 -11.296,5.147 -26.918,5.147 v 0 c -4.892,0 -10.214,-0.502 -15.756,-1.822 m 42.674,-3.325 c 0,0 0,0 0,0 v 0 c 0,0 0,0 0,0" /></clipPath><radialGradient
       id="radialGradient88"
       spreadMethod="pad"
       gradientTransform="matrix(23.843765,0,0,-23.843765,437.90298,483.27478)"
       gradientUnits="userSpaceOnUse"
       r="1"
       cy="0"
       cx="0"
       fy="0"
       fx="0"><stop
         id="stop84"
         offset="0"
         style="stop-opacity:1;stop-color:#27aae1" /><stop
         id="stop86"
         offset="1"
         style="stop-opacity:1;stop-color:#1c75bc" /></radialGradient><clipPath
       id="clipPath98"
       clipPathUnits="userSpaceOnUse"><path
         id="path96"
         d="m 451.771,471.898 c -1.754,-1.945 -2.585,-4.452 -2.086,-7.044 v 0 c 0.168,-0.875 0.473,-1.714 0.865,-2.512 v 0 c 0.217,-0.44 0.511,-0.822 0.856,-1.162 v 0 c 1.209,-1.194 3.038,-1.887 4.326,-2.89 v 0 c 1.407,-1.095 2.702,-2.331 3.874,-3.674 v 0 c 2.692,-3.086 4.731,-6.719 6.145,-10.554 v 0 c 0.566,-1.536 1.389,-3.445 1.445,-5.114 v 0 c 0.797,-23.473 -24.946,-41.917 -24.946,-41.917 v 0 c 54.312,15.758 48.63,52.302 48.628,52.312 v 0 c -0.529,3.399 -0.743,6.699 -1.81,10.008 v 0 c -0.843,2.614 -2.019,5.13 -3.588,7.39 v 0 c -3.501,5.036 -8.825,8.337 -14.752,9.73 v 0 c -2.032,0.477 -4.101,0.748 -6.136,0.748 v 0 c -4.782,-10e-4 -9.371,-1.496 -12.821,-5.321" /></clipPath><radialGradient
       id="radialGradient108"
       spreadMethod="pad"
       gradientTransform="matrix(33.187435,0,0,-33.187435,466.64969,437.12491)"
       gradientUnits="userSpaceOnUse"
       r="1"
       cy="0"
       cx="0"
       fy="0"
       fx="0"><stop
         id="stop104"
         offset="0"
         style="stop-opacity:1;stop-color:#27aae1" /><stop
         id="stop106"
         offset="1"
         style="stop-opacity:1;stop-color:#1c75bc" /></radialGradient><clipPath
       id="clipPath118"
       clipPathUnits="userSpaceOnUse"><path
         id="path116"
         d="m 391.258,533.067 c -35.057,-13.78 -61.369,-40.226 -75.771,-72.028 v 0 c 13.961,24.512 36.068,44.598 64.366,55.721 v 0 c 65.802,25.864 140.113,-6.511 165.978,-72.313 v 0 C 571.695,378.644 539.32,304.334 473.518,278.469 v 0 c -28.297,-11.123 -58.165,-11.467 -85.08,-3.022 v 0 c 32.202,-13.483 69.479,-14.935 104.536,-1.155 v 0 c 71.459,28.089 106.618,108.788 78.53,180.246 v 0 c -21.525,54.759 -73.946,88.201 -129.425,88.203 v 0 c -16.92,10e-4 -34.121,-3.109 -50.821,-9.674" /></clipPath><radialGradient
       id="radialGradient128"
       spreadMethod="pad"
       gradientTransform="matrix(-119.98035,-47.160667,-47.160667,119.98035,461.73291,411.3905)"
       gradientUnits="userSpaceOnUse"
       r="1"
       cy="0"
       cx="0"
       fy="0"
       fx="0"><stop
         id="stop124"
         offset="0"
         style="stop-opacity:1;stop-color:#27aae1" /><stop
         id="stop126"
         offset="1"
         style="stop-opacity:1;stop-color:#1c75bc" /></radialGradient><clipPath
       id="clipPath138"
       clipPathUnits="userSpaceOnUse"><path
         id="path136"
         d="m 396.772,542.336 c 30.548,10.11 64.62,10.25 97.093,-1.933 v 0 c 75.511,-28.33 113.76,-112.51 85.431,-188.021 v 0 C 550.966,276.87 466.786,238.622 391.274,266.951 v 0 c -32.472,12.183 -58.045,34.698 -74.404,62.407 v 0 c 16.992,-36.015 47.472,-65.71 87.703,-80.803 v 0 c 82.002,-30.765 173.419,10.771 204.183,92.774 v 0 c 30.765,82.002 -10.772,173.419 -92.774,204.184 v 0 c -18.342,6.881 -37.161,10.143 -55.66,10.144 v 0 c -22.074,0 -43.697,-4.643 -63.55,-13.321" /></clipPath><radialGradient
       id="radialGradient148"
       spreadMethod="pad"
       gradientTransform="matrix(-137.68402,51.654709,51.654709,137.68402,482.7887,388.58801)"
       gradientUnits="userSpaceOnUse"
       r="1"
       cy="0"
       cx="0"
       fy="0"
       fx="0"><stop
         id="stop144"
         offset="0"
         style="stop-opacity:1;stop-color:#27aae1" /><stop
         id="stop146"
         offset="1"
         style="stop-opacity:1;stop-color:#1c75bc" /></radialGradient><clipPath
       id="clipPath158"
       clipPathUnits="userSpaceOnUse"><path
         id="path156"
         d="m 79.975,223.471 v -122.19 h 52.37 v 17.453 H 99.179 v 35.785 h 26.358 v 17.457 H 99.179 v 34.038 h 33.166 v 17.457 z" /></clipPath><radialGradient
       id="radialGradient168"
       spreadMethod="pad"
       gradientTransform="matrix(47.001339,0,0,-47.001339,106.15999,162.37534)"
       gradientUnits="userSpaceOnUse"
       r="1"
       cy="0"
       cx="0"
       fy="0"
       fx="0"><stop
         id="stop164"
         offset="0"
         style="stop-opacity:1;stop-color:#414042" /><stop
         id="stop166"
         offset="1"
         style="stop-opacity:1;stop-color:#000000" /></radialGradient><clipPath
       id="clipPath178"
       clipPathUnits="userSpaceOnUse"><path
         id="path176"
         d="m 190.469,223.471 -14.838,-45.037 -14.487,45.037 h -19.9 l 20.074,-59.351 -21.47,-62.839 h 17.98 l 15.883,48.351 15.712,-48.351 h 20.249 l -21.471,62.839 20.073,59.351 z" /></clipPath><radialGradient
       id="radialGradient188"
       spreadMethod="pad"
       gradientTransform="matrix(49.756615,0,0,-49.756615,174.76039,162.37534)"
       gradientUnits="userSpaceOnUse"
       r="1"
       cy="0"
       cx="0"
       fy="0"
       fx="0"><stop
         id="stop184"
         offset="0"
         style="stop-opacity:1;stop-color:#414042" /><stop
         id="stop186"
         offset="1"
         style="stop-opacity:1;stop-color:#000000" /></radialGradient><clipPath
       id="clipPath198"
       clipPathUnits="userSpaceOnUse"><path
         id="path196"
         d="m 219.271,223.471 v -122.19 h 19.2 v 45.908 h 9.076 c 19.2,0 28.628,10.647 28.628,30.196 v 0 15.886 c 0,19.551 -9.428,30.2 -28.628,30.2 v 0 z m 19.2,-17.457 h 9.076 c 6.111,0 9.426,-2.793 9.426,-11.521 v 0 -18.329 c 0,-8.725 -3.315,-11.519 -9.426,-11.519 v 0 h -9.076 z" /></clipPath><radialGradient
       id="radialGradient208"
       spreadMethod="pad"
       gradientTransform="matrix(47.655785,0,0,-47.655785,247.72253,162.37534)"
       gradientUnits="userSpaceOnUse"
       r="1"
       cy="0"
       cx="0"
       fy="0"
       fx="0"><stop
         id="stop204"
         offset="0"
         style="stop-opacity:1;stop-color:#414042" /><stop
         id="stop206"
         offset="1"
         style="stop-opacity:1;stop-color:#000000" /></radialGradient><clipPath
       id="clipPath218"
       clipPathUnits="userSpaceOnUse"><path
         id="path216"
         d="m 285.944,223.471 v -122.19 h 52.37 v 17.453 h -33.166 v 35.785 h 26.358 v 17.457 h -26.358 v 34.038 h 33.166 v 17.457 z" /></clipPath><radialGradient
       id="radialGradient228"
       spreadMethod="pad"
       gradientTransform="matrix(47.001339,0,0,-47.001339,312.12878,162.37534)"
       gradientUnits="userSpaceOnUse"
       r="1"
       cy="0"
       cx="0"
       fy="0"
       fx="0"><stop
         id="stop224"
         offset="0"
         style="stop-opacity:1;stop-color:#414042" /><stop
         id="stop226"
         offset="1"
         style="stop-opacity:1;stop-color:#000000" /></radialGradient><clipPath
       id="clipPath238"
       clipPathUnits="userSpaceOnUse"><path
         id="path236"
         d="m 350.184,223.471 v -122.19 h 19.201 v 49.747 h 6.631 c 8.729,0 12.57,-4.189 12.57,-15.537 v 0 -19.2 c 0,-9.951 0.699,-11.868 1.745,-15.01 v 0 h 19.551 c -1.921,4.537 -2.095,8.901 -2.095,14.836 v 0 18.851 c 0,12.744 -3.142,21.995 -12.743,26.01 v 0 c 8.553,4.014 12.568,12.22 12.568,24.786 v 0 9.603 c 0,18.852 -8.553,28.104 -28.453,28.104 v 0 z m 19.201,-17.457 h 9.251 c 6.808,0 9.774,-3.839 9.774,-12.567 v 0 -12.044 c 0,-9.777 -4.364,-12.919 -11.521,-12.919 v 0 h -7.504 z" /></clipPath><radialGradient
       id="radialGradient248"
       spreadMethod="pad"
       gradientTransform="matrix(48.08099,0,0,-48.08099,380.03275,162.37534)"
       gradientUnits="userSpaceOnUse"
       r="1"
       cy="0"
       cx="0"
       fy="0"
       fx="0"><stop
         id="stop244"
         offset="0"
         style="stop-opacity:1;stop-color:#414042" /><stop
         id="stop246"
         offset="1"
         style="stop-opacity:1;stop-color:#000000" /></radialGradient><clipPath
       id="clipPath258"
       clipPathUnits="userSpaceOnUse"><path
         id="path256"
         d="m 420.352,101.281 h 19.201 v 122.19 h -19.201 z" /></clipPath><radialGradient
       id="radialGradient268"
       spreadMethod="pad"
       gradientTransform="matrix(43.730919,0,0,-43.730919,429.95258,162.37534)"
       gradientUnits="userSpaceOnUse"
       r="1"
       cy="0"
       cx="0"
       fy="0"
       fx="0"><stop
         id="stop264"
         offset="0"
         style="stop-opacity:1;stop-color:#414042" /><stop
         id="stop266"
         offset="1"
         style="stop-opacity:1;stop-color:#000000" /></radialGradient><clipPath
       id="clipPath278"
       clipPathUnits="userSpaceOnUse"><path
         id="path276"
         d="m 453.515,223.471 v -122.19 h 52.367 v 17.453 h -33.165 v 35.785 h 26.357 v 17.457 h -26.357 v 34.038 h 33.165 v 17.457 z" /></clipPath><radialGradient
       id="radialGradient288"
       spreadMethod="pad"
       gradientTransform="matrix(47.001007,0,0,-47.001007,479.69888,162.37534)"
       gradientUnits="userSpaceOnUse"
       r="1"
       cy="0"
       cx="0"
       fy="0"
       fx="0"><stop
         id="stop284"
         offset="0"
         style="stop-opacity:1;stop-color:#414042" /><stop
         id="stop286"
         offset="1"
         style="stop-opacity:1;stop-color:#000000" /></radialGradient><clipPath
       id="clipPath298"
       clipPathUnits="userSpaceOnUse"><path
         id="path296"
         d="m 561.389,223.471 v -73.14 l -19.726,73.14 h -24.088 v -122.19 h 17.281 v 88.501 l 23.913,-88.501 h 19.728 v 122.19 z" /></clipPath><radialGradient
       id="radialGradient308"
       spreadMethod="pad"
       gradientTransform="matrix(48.272541,0,0,-48.272541,548.03546,162.37534)"
       gradientUnits="userSpaceOnUse"
       r="1"
       cy="0"
       cx="0"
       fy="0"
       fx="0"><stop
         id="stop304"
         offset="0"
         style="stop-opacity:1;stop-color:#414042" /><stop
         id="stop306"
         offset="1"
         style="stop-opacity:1;stop-color:#000000" /></radialGradient><clipPath
       id="clipPath318"
       clipPathUnits="userSpaceOnUse"><path
         id="path316"
         d="m 590.711,194.143 v -63.539 c 0,-19.549 9.774,-30.721 28.627,-30.721 v 0 c 18.853,0 28.628,11.172 28.628,30.721 v 0 16.235 h -18.153 v -17.456 c 0,-8.728 -3.841,-11.871 -9.951,-11.871 v 0 c -6.111,0 -9.949,3.143 -9.949,11.871 v 0 65.984 c 0,8.727 3.838,12.044 9.949,12.044 v 0 c 6.11,0 9.951,-3.317 9.951,-12.044 v 0 -13.092 h 18.153 v 11.868 c 0,19.551 -9.775,30.723 -28.628,30.723 v 0 c -18.853,0 -28.627,-11.172 -28.627,-30.723" /></clipPath><radialGradient
       id="radialGradient328"
       spreadMethod="pad"
       gradientTransform="matrix(48.604038,0,0,-48.604038,619.33844,162.37415)"
       gradientUnits="userSpaceOnUse"
       r="1"
       cy="0"
       cx="0"
       fy="0"
       fx="0"><stop
         id="stop324"
         offset="0"
         style="stop-opacity:1;stop-color:#414042" /><stop
         id="stop326"
         offset="1"
         style="stop-opacity:1;stop-color:#000000" /></radialGradient><clipPath
       id="clipPath338"
       clipPathUnits="userSpaceOnUse"><path
         id="path336"
         d="m 659.655,223.471 v -122.19 h 52.369 v 17.453 h -33.165 v 35.785 h 26.358 v 17.457 h -26.358 v 34.038 h 33.165 v 17.457 z" /></clipPath><radialGradient
       id="radialGradient348"
       spreadMethod="pad"
       gradientTransform="matrix(47.001339,0,0,-47.001339,685.84003,162.37534)"
       gradientUnits="userSpaceOnUse"
       r="1"
       cy="0"
       cx="0"
       fy="0"
       fx="0"><stop
         id="stop344"
         offset="0"
         style="stop-opacity:1;stop-color:#414042" /><stop
         id="stop346"
         offset="1"
         style="stop-opacity:1;stop-color:#000000" /></radialGradient><clipPath
       id="clipPath358"
       clipPathUnits="userSpaceOnUse"><path
         id="path356"
         d="M 222.901,90.467 V 51.771 h 7.761 v 14.033 h 7.043 c 4.447,0 7.946,1.124 10.499,3.375 v 0 c 2.55,2.249 3.827,5.225 3.827,8.928 v 0 c 0,3.704 -1.277,6.689 -3.827,8.956 v 0 c -2.553,2.271 -6.052,3.404 -10.499,3.404 v 0 z m 7.761,-5.98 h 7.043 c 2.179,0 3.822,-0.609 4.93,-1.821 v 0 c 1.107,-1.214 1.661,-2.75 1.661,-4.611 v 0 c 0,-1.826 -0.558,-3.325 -1.673,-4.504 v 0 c -1.117,-1.179 -2.758,-1.769 -4.918,-1.769 v 0 h -7.043 z" /></clipPath><linearGradient
       id="linearGradient368"
       spreadMethod="pad"
       gradientTransform="matrix(0,38.696995,38.696995,0,237.46597,51.77039)"
       gradientUnits="userSpaceOnUse"
       y2="0"
       x2="1"
       y1="0"
       x1="0"><stop
         id="stop364"
         offset="0"
         style="stop-opacity:1;stop-color:#1c75bc" /><stop
         id="stop366"
         offset="1"
         style="stop-opacity:1;stop-color:#27aae1" /></linearGradient><clipPath
       id="clipPath378"
       clipPathUnits="userSpaceOnUse"><path
         id="path376"
         d="m 266.494,86.36 c -2.966,-3.109 -4.449,-7.029 -4.449,-11.759 v 0 -6.964 c 0,-4.75 1.488,-8.673 4.464,-11.773 v 0 c 2.976,-3.102 6.857,-4.652 11.64,-4.652 v 0 c 4.801,0 8.7,1.545 11.694,4.638 v 0 c 2.995,3.092 4.493,7.02 4.493,11.787 v 0 6.964 c 0,4.73 -1.507,8.65 -4.519,11.759 v 0 c -3.014,3.109 -6.919,4.663 -11.721,4.663 v 0 c -4.765,0 -8.632,-1.554 -11.602,-4.663 m 5.489,-26.217 c -1.471,1.929 -2.206,4.427 -2.206,7.494 v 0 7.016 c 0,3.012 0.732,5.484 2.194,7.414 v 0 c 1.462,1.933 3.504,2.898 6.125,2.898 v 0 c 2.658,0 4.741,-0.965 6.245,-2.898 v 0 c 1.507,-1.93 2.26,-4.402 2.26,-7.414 v 0 -7.016 c 0,-3.067 -0.744,-5.565 -2.232,-7.494 v 0 c -1.487,-1.934 -3.563,-2.898 -6.22,-2.898 v 0 c -2.638,0 -4.695,0.964 -6.166,2.898" /></clipPath><linearGradient
       id="linearGradient388"
       spreadMethod="pad"
       gradientTransform="matrix(0,39.81179,39.81179,0,278.19052,51.211803)"
       gradientUnits="userSpaceOnUse"
       y2="0"
       x2="1"
       y1="0"
       x1="0"><stop
         id="stop384"
         offset="0"
         style="stop-opacity:1;stop-color:#1c75bc" /><stop
         id="stop386"
         offset="1"
         style="stop-opacity:1;stop-color:#27aae1" /></linearGradient><clipPath
       id="clipPath398"
       clipPathUnits="userSpaceOnUse"><path
         id="path396"
         d="m 309.385,86.36 c -2.967,-3.109 -4.45,-7.029 -4.45,-11.759 v 0 -6.964 c 0,-4.75 1.488,-8.673 4.464,-11.773 v 0 c 2.976,-3.102 6.857,-4.652 11.64,-4.652 v 0 c 4.801,0 8.699,1.545 11.695,4.638 v 0 c 2.995,3.092 4.492,7.02 4.492,11.787 v 0 6.964 c 0,4.73 -1.507,8.65 -4.519,11.759 v 0 c -3.014,3.109 -6.919,4.663 -11.72,4.663 v 0 c -4.767,0 -8.634,-1.554 -11.602,-4.663 m 5.488,-26.217 c -1.471,1.929 -2.206,4.427 -2.206,7.494 v 0 7.016 c 0,3.012 0.732,5.484 2.194,7.414 v 0 c 1.462,1.933 3.504,2.898 6.126,2.898 v 0 c 2.657,0 4.739,-0.965 6.244,-2.898 v 0 c 1.507,-1.93 2.261,-4.402 2.261,-7.414 v 0 -7.016 c 0,-3.067 -0.745,-5.565 -2.232,-7.494 v 0 c -1.489,-1.934 -3.563,-2.898 -6.221,-2.898 v 0 c -2.639,0 -4.694,0.964 -6.166,2.898" /></clipPath><linearGradient
       id="linearGradient408"
       spreadMethod="pad"
       gradientTransform="matrix(0,39.81179,39.81179,0,321.08047,51.211803)"
       gradientUnits="userSpaceOnUse"
       y2="0"
       x2="1"
       y1="0"
       x1="0"><stop
         id="stop404"
         offset="0"
         style="stop-opacity:1;stop-color:#1c75bc" /><stop
         id="stop406"
         offset="1"
         style="stop-opacity:1;stop-color:#27aae1" /></linearGradient><clipPath
       id="clipPath418"
       clipPathUnits="userSpaceOnUse"><path
         id="path416"
         d="M 348.807,90.467 V 51.771 h 25.088 v 5.954 h -17.328 v 32.742 z" /></clipPath><linearGradient
       id="linearGradient428"
       spreadMethod="pad"
       gradientTransform="matrix(0,38.696995,38.696995,0,361.35101,51.77039)"
       gradientUnits="userSpaceOnUse"
       y2="0"
       x2="1"
       y1="0"
       x1="0"><stop
         id="stop424"
         offset="0"
         style="stop-opacity:1;stop-color:#1c75bc" /><stop
         id="stop426"
         offset="1"
         style="stop-opacity:1;stop-color:#27aae1" /></linearGradient><clipPath
       id="clipPath438"
       clipPathUnits="userSpaceOnUse"><path
         id="path436"
         d="m 407.769,88.394 c -1.877,-1.754 -2.816,-4.245 -2.816,-7.468 v 0 c 0,-1.364 0.283,-2.707 0.851,-4.026 v 0 c 0.566,-1.322 1.435,-2.779 2.605,-4.374 v 0 c -2.323,-1.719 -4.045,-3.335 -5.17,-4.849 v 0 c -1.124,-1.514 -1.688,-3.344 -1.688,-5.489 v 0 c 0,-3.26 1.144,-5.904 3.428,-7.933 v 0 c 2.286,-2.028 5.36,-3.043 9.223,-3.043 v 0 c 1.825,0 3.534,0.245 5.129,0.731 v 0 c 1.595,0.488 3.145,1.218 4.652,2.193 v 0 l 2.046,-2.365 h 8.61 l 0.055,0.133 -5.344,6.244 c 1.329,1.614 2.308,3.465 2.938,5.555 v 0 c 0.627,2.091 0.943,4.395 0.943,6.909 v 0 h -6.192 c 0,-1.38 -0.178,-2.693 -0.532,-3.931 v 0 c -0.354,-1.241 -0.851,-2.384 -1.487,-3.43 v 0 l -7.177,8.372 2.713,1.913 c 1.468,1.153 2.581,2.401 3.334,3.749 v 0 c 0.752,1.345 1.13,2.94 1.13,4.782 v 0 c 0,2.482 -0.882,4.595 -2.646,6.34 v 0 c -1.762,1.744 -4.053,2.616 -6.87,2.616 v 0 c -3.278,0 -5.856,-0.876 -7.735,-2.629 m 4.652,-9.674 c -0.354,0.78 -0.532,1.541 -0.532,2.285 v 0 c 0,1.134 0.302,2.091 0.906,2.871 v 0 c 0.601,0.78 1.433,1.17 2.497,1.17 v 0 c 1.027,0 1.834,-0.342 2.418,-1.025 v 0 c 0.585,-0.682 0.877,-1.474 0.877,-2.377 v 0 c 0,-0.799 -0.173,-1.533 -0.518,-2.208 v 0 c -0.345,-0.672 -1.015,-1.329 -2.006,-1.966 v 0 l -2.021,-1.302 c -0.727,0.922 -1.267,1.773 -1.621,2.552 m -1.647,-20.026 c -0.974,1.017 -1.462,2.316 -1.462,3.894 v 0 c 0,0.796 0.195,1.602 0.585,2.417 v 0 c 0.39,0.816 1.108,1.647 2.154,2.499 v 0 l 0.237,0.185 7.842,-9.087 c -0.87,-0.48 -1.773,-0.839 -2.713,-1.077 v 0 c -0.938,-0.24 -1.877,-0.359 -2.816,-0.359 v 0 c -1.578,0 -2.853,0.509 -3.827,1.528" /></clipPath><linearGradient
       id="linearGradient448"
       spreadMethod="pad"
       gradientTransform="matrix(0,39.81179,39.81179,0,418.12247,51.211803)"
       gradientUnits="userSpaceOnUse"
       y2="0"
       x2="1"
       y1="0"
       x1="0"><stop
         id="stop444"
         offset="0"
         style="stop-opacity:1;stop-color:#1c75bc" /><stop
         id="stop446"
         offset="1"
         style="stop-opacity:1;stop-color:#27aae1" /></linearGradient><clipPath
       id="clipPath458"
       clipPathUnits="userSpaceOnUse"><path
         id="path456"
         d="m 467.134,88.007 c -2.605,-2.011 -3.908,-4.601 -3.908,-7.772 v 0 c 0,-3.154 1.156,-5.643 3.468,-7.469 v 0 c 2.313,-1.825 5.701,-3.411 10.167,-4.757 v 0 c 2.605,-0.798 4.426,-1.648 5.462,-2.552 v 0 c 1.036,-0.904 1.555,-2.099 1.555,-3.587 v 0 c 0,-1.452 -0.547,-2.615 -1.636,-3.483 v 0 c -1.088,-0.867 -2.672,-1.302 -4.744,-1.302 v 0 c -2.303,0 -4.129,0.542 -5.474,1.621 v 0 c -1.348,1.082 -2.021,2.765 -2.021,5.052 v 0 h -7.52 l -0.053,-0.16 c -0.09,-4.112 1.36,-7.202 4.345,-9.277 v 0 c 2.985,-2.072 6.558,-3.109 10.723,-3.109 v 0 c 4.252,0 7.673,0.957 10.259,2.871 v 0 c 2.586,1.913 3.881,4.526 3.881,7.84 v 0 c 0,3.17 -1.116,5.728 -3.348,7.668 v 0 c -2.232,1.939 -5.477,3.512 -9.729,4.718 v 0 c -2.781,0.939 -4.741,1.827 -5.874,2.669 v 0 c -1.134,0.841 -1.7,1.919 -1.7,3.23 v 0 c 0,1.436 0.523,2.613 1.569,3.535 v 0 c 1.044,0.92 2.524,1.381 4.438,1.381 v 0 c 2.108,0 3.746,-0.519 4.915,-1.554 v 0 c 1.17,-1.037 1.755,-2.521 1.755,-4.453 v 0 h 7.52 l 0.055,0.16 c 0.088,3.508 -1.174,6.344 -3.786,8.505 v 0 c -2.615,2.162 -6.066,3.241 -10.352,3.241 v 0 c -4.041,0 -7.364,-1.005 -9.967,-3.016" /></clipPath><linearGradient
       id="linearGradient468"
       spreadMethod="pad"
       gradientTransform="matrix(0,39.81179,39.81179,0,477.03238,51.211803)"
       gradientUnits="userSpaceOnUse"
       y2="0"
       x2="1"
       y1="0"
       x1="0"><stop
         id="stop464"
         offset="0"
         style="stop-opacity:1;stop-color:#1c75bc" /><stop
         id="stop466"
         offset="1"
         style="stop-opacity:1;stop-color:#27aae1" /></linearGradient><clipPath
       id="clipPath478"
       clipPathUnits="userSpaceOnUse"><path
         id="path476"
         d="M 502.793,90.467 V 51.771 h 7.762 v 14.033 h 7.042 c 4.447,0 7.946,1.124 10.5,3.375 v 0 c 2.55,2.249 3.826,5.225 3.826,8.928 v 0 c 0,3.704 -1.276,6.689 -3.826,8.956 v 0 c -2.554,2.271 -6.053,3.404 -10.5,3.404 v 0 z m 7.762,-5.98 h 7.042 c 2.18,0 3.822,-0.609 4.93,-1.821 v 0 c 1.107,-1.214 1.662,-2.75 1.662,-4.611 v 0 c 0,-1.826 -0.559,-3.325 -1.674,-4.504 v 0 c -1.117,-1.179 -2.757,-1.769 -4.918,-1.769 v 0 h -7.042 z" /></clipPath><linearGradient
       id="linearGradient488"
       spreadMethod="pad"
       gradientTransform="matrix(0,38.696995,38.696995,0,517.3584,51.77039)"
       gradientUnits="userSpaceOnUse"
       y2="0"
       x2="1"
       y1="0"
       x1="0"><stop
         id="stop484"
         offset="0"
         style="stop-opacity:1;stop-color:#1c75bc" /><stop
         id="stop486"
         offset="1"
         style="stop-opacity:1;stop-color:#27aae1" /></linearGradient><clipPath
       id="clipPath498"
       clipPathUnits="userSpaceOnUse"><path
         id="path496"
         d="m 548.156,90.467 -13.05,-38.696 h 8.105 l 2.606,8.345 h 12.545 l 2.631,-8.345 h 8.106 l -12.997,38.696 z m 3.881,-10.632 h 0.159 l 4.278,-13.634 h -8.744 z" /></clipPath><linearGradient
       id="linearGradient508"
       spreadMethod="pad"
       gradientTransform="matrix(0,38.696995,38.696995,0,552.10248,51.77039)"
       gradientUnits="userSpaceOnUse"
       y2="0"
       x2="1"
       y1="0"
       x1="0"><stop
         id="stop504"
         offset="0"
         style="stop-opacity:1;stop-color:#1c75bc" /><stop
         id="stop506"
         offset="1"
         style="stop-opacity:1;stop-color:#27aae1" /></linearGradient><clipPath
       id="clipPath518"
       clipPathUnits="userSpaceOnUse"><path
         id="path516"
         d="m 79.975,71.474 c 0,-0.703 51.965,-1.327 131.746,-1.709 v 0 3.419 C 131.94,72.803 79.975,72.179 79.975,71.474" /></clipPath><linearGradient
       id="linearGradient528"
       spreadMethod="pad"
       gradientTransform="matrix(0,3.4192646,3.4192646,0,145.84802,69.765053)"
       gradientUnits="userSpaceOnUse"
       y2="0"
       x2="1"
       y1="0"
       x1="0"><stop
         id="stop524"
         offset="0"
         style="stop-opacity:1;stop-color:#1c75bc" /><stop
         id="stop526"
         offset="1"
         style="stop-opacity:1;stop-color:#27aae1" /></linearGradient><clipPath
       id="clipPath538"
       clipPathUnits="userSpaceOnUse"><path
         id="path536"
         d="m 575.606,69.743 c 82.416,0.38 136.418,1.014 136.418,1.731 v 0 c 0,0.719 -54.002,1.352 -136.418,1.732 v 0 z" /></clipPath><linearGradient
       id="linearGradient548"
       spreadMethod="pad"
       gradientTransform="matrix(0,3.4632385,3.4632385,0,643.81512,69.743072)"
       gradientUnits="userSpaceOnUse"
       y2="0"
       x2="1"
       y1="0"
       x1="0"><stop
         id="stop544"
         offset="0"
         style="stop-opacity:1;stop-color:#1c75bc" /><stop
         id="stop546"
         offset="1"
         style="stop-opacity:1;stop-color:#27aae1" /></linearGradient></defs><g
     transform="matrix(1.3333333,0,0,-1.3333333,0,816)"
     id="g10"><g
       id="g12"><g
         clip-path="url(#clipPath18)"
         id="g14"><g
           id="g20"><g
             id="g22"><path
               id="path30"
               style="fill:url(#radialGradient28);stroke:none"
               d="m 173.095,381.382 c 50.077,10.285 92.552,-23.249 92.552,-23.249 v 0 c 53.206,-34.875 108.648,-32.639 108.648,-32.639 v 0 c 87.633,-1.341 139.051,59.913 139.051,59.913 v 0 c -49.63,-33.98 -104.625,-32.639 -104.625,-32.639 v 0 c -45.604,-4.024 -117.589,39.345 -117.589,39.345 v 0 c -24.215,12.556 -44.244,17.035 -60.498,17.035 v 0 c -40.469,-0.001 -57.539,-27.766 -57.539,-27.766" /></g></g></g></g><g
       id="g32"><g
         clip-path="url(#clipPath38)"
         id="g34"><g
           id="g40"><g
             id="g42"><path
               id="path50"
               style="fill:url(#radialGradient48);stroke:none"
               d="m 441.584,386.971 c -2.508,-0.133 -5.023,-0.163 -7.534,-0.099 v 0 c -11.804,0.301 -23.499,2.654 -34.726,6.235 v 0 c -9.498,3.03 -18.709,6.948 -27.561,11.526 v 0 c -7.383,3.824 -14.161,8.728 -21.651,12.351 v 0 c -11.258,5.447 -23.235,9.404 -35.562,11.546 v 0 c -10.268,1.783 -20.747,2.308 -31.143,1.576 v 0 c -8.344,-0.586 -16.634,-1.972 -24.714,-4.133 v 0 c -5.544,-1.483 -11.004,-3.321 -16.277,-5.589 v 0 c -1.466,-0.63 -2.92,-1.294 -4.347,-2.009 v 0 c -0.339,-0.17 -1.096,-0.776 -1.484,-0.777 v 0 c 52.87,0.112 101.046,-32.304 101.046,-32.304 v 0 c 44.935,-25.82 72.767,-22.466 72.767,-22.466 v 0 c 109.654,-0.671 90.205,86.515 90.205,86.515 v 0 c -2.682,-62.372 -59.019,-62.372 -59.019,-62.372" /></g></g></g></g><g
       id="g52"><g
         clip-path="url(#clipPath58)"
         id="g54"><g
           id="g60"><g
             id="g62"><path
               id="path70"
               style="fill:url(#radialGradient68);stroke:none"
               d="m 404.363,454.037 c -1.601,-0.38 -3.167,-1.177 -4.513,-2.103 v 0 c -2.892,-1.991 -4.783,-5.025 -5.071,-8.551 v 0 c -0.095,-1.159 -0.245,-2.478 0.208,-3.581 v 0 c 0.676,-1.644 2.268,-2.846 3.789,-3.671 v 0 c 3.788,-2.057 8.156,-1.173 11.789,0.794 v 0 c 1.664,0.902 2.79,2.469 4.118,3.768 v 0 c 1.6,1.564 3.273,3.055 5.012,4.464 v 0 c 3.25,2.633 6.743,4.996 10.488,6.869 v 0 c 0,0 -6.813,3.114 -16.286,3.114 v 0 c -2.961,0 -6.18,-0.304 -9.534,-1.103" /></g></g></g></g><g
       id="g72"><g
         clip-path="url(#clipPath78)"
         id="g74"><g
           id="g80"><g
             id="g82"><path
               id="path90"
               style="fill:url(#radialGradient88);stroke:none"
               d="m 424.522,498.155 c -3.605,-0.858 -7.148,-2.897 -9.857,-5.38 v 0 c -2.414,-2.211 -4.249,-4.998 -5.21,-8.135 v 0 c -0.585,-1.909 -0.845,-3.906 -0.845,-5.899 v 0 c 10e-4,-2.556 0.521,-5.258 2.466,-7.125 v 0 c 2.076,-1.992 4.759,-3.622 7.528,-4.414 v 0 c 2.764,-0.791 5.688,-0.8 8.495,-0.231 v 0 c 1.792,0.364 3.534,0.954 5.207,1.69 v 0 c 3.586,1.576 5.875,4.066 8.594,6.769 v 0 c 3.131,3.113 6.438,6.054 9.898,8.798 v 0 c 2.482,1.967 5.045,3.833 7.694,5.57 v 0 c 1.386,0.907 2.793,1.78 4.225,2.612 v 0 c 0.731,0.424 1.467,0.837 2.209,1.239 v 0 c 0.312,0.168 1.988,1.309 2.27,1.181 v 0 c -0.052,0.024 -11.296,5.147 -26.918,5.147 v 0 c -4.892,0 -10.214,-0.502 -15.756,-1.822 m 42.674,-3.325 c 0,0 0,0 0,0 v 0 c 0,0 0,0 0,0" /></g></g></g></g><g
       id="g92"><g
         clip-path="url(#clipPath98)"
         id="g94"><g
           id="g100"><g
             id="g102"><path
               id="path110"
               style="fill:url(#radialGradient108);stroke:none"
               d="m 451.771,471.898 c -1.754,-1.945 -2.585,-4.452 -2.086,-7.044 v 0 c 0.168,-0.875 0.473,-1.714 0.865,-2.512 v 0 c 0.217,-0.44 0.511,-0.822 0.856,-1.162 v 0 c 1.209,-1.194 3.038,-1.887 4.326,-2.89 v 0 c 1.407,-1.095 2.702,-2.331 3.874,-3.674 v 0 c 2.692,-3.086 4.731,-6.719 6.145,-10.554 v 0 c 0.566,-1.536 1.389,-3.445 1.445,-5.114 v 0 c 0.797,-23.473 -24.946,-41.917 -24.946,-41.917 v 0 c 54.312,15.758 48.63,52.302 48.628,52.312 v 0 c -0.529,3.399 -0.743,6.699 -1.81,10.008 v 0 c -0.843,2.614 -2.019,5.13 -3.588,7.39 v 0 c -3.501,5.036 -8.825,8.337 -14.752,9.73 v 0 c -2.032,0.477 -4.101,0.748 -6.136,0.748 v 0 c -4.782,-10e-4 -9.371,-1.496 -12.821,-5.321" /></g></g></g></g><g
       id="g112"><g
         clip-path="url(#clipPath118)"
         id="g114"><g
           id="g120"><g
             id="g122"><path
               id="path130"
               style="fill:url(#radialGradient128);stroke:none"
               d="m 391.258,533.067 c -35.057,-13.78 -61.369,-40.226 -75.771,-72.028 v 0 c 13.961,24.512 36.068,44.598 64.366,55.721 v 0 c 65.802,25.864 140.113,-6.511 165.978,-72.313 v 0 C 571.695,378.644 539.32,304.334 473.518,278.469 v 0 c -28.297,-11.123 -58.165,-11.467 -85.08,-3.022 v 0 c 32.202,-13.483 69.479,-14.935 104.536,-1.155 v 0 c 71.459,28.089 106.618,108.788 78.53,180.246 v 0 c -21.525,54.759 -73.946,88.201 -129.425,88.203 v 0 c -16.92,10e-4 -34.121,-3.109 -50.821,-9.674" /></g></g></g></g><g
       id="g132"><g
         clip-path="url(#clipPath138)"
         id="g134"><g
           id="g140"><g
             id="g142"><path
               id="path150"
               style="fill:url(#radialGradient148);stroke:none"
               d="m 396.772,542.336 c 30.548,10.11 64.62,10.25 97.093,-1.933 v 0 c 75.511,-28.33 113.76,-112.51 85.431,-188.021 v 0 C 550.966,276.87 466.786,238.622 391.274,266.951 v 0 c -32.472,12.183 -58.045,34.698 -74.404,62.407 v 0 c 16.992,-36.015 47.472,-65.71 87.703,-80.803 v 0 c 82.002,-30.765 173.419,10.771 204.183,92.774 v 0 c 30.765,82.002 -10.772,173.419 -92.774,204.184 v 0 c -18.342,6.881 -37.161,10.143 -55.66,10.144 v 0 c -22.074,0 -43.697,-4.643 -63.55,-13.321" /></g></g></g></g><g
       id="g152"><g
         clip-path="url(#clipPath158)"
         id="g154"><g
           id="g160"><g
             id="g162"><path
               id="path170"
               style="fill:url(#radialGradient168);stroke:none"
               d="m 79.975,223.471 v -122.19 h 52.37 v 17.453 H 99.179 v 35.785 h 26.358 v 17.457 H 99.179 v 34.038 h 33.166 v 17.457 z" /></g></g></g></g><g
       id="g172"><g
         clip-path="url(#clipPath178)"
         id="g174"><g
           id="g180"><g
             id="g182"><path
               id="path190"
               style="fill:url(#radialGradient188);stroke:none"
               d="m 190.469,223.471 -14.838,-45.037 -14.487,45.037 h -19.9 l 20.074,-59.351 -21.47,-62.839 h 17.98 l 15.883,48.351 15.712,-48.351 h 20.249 l -21.471,62.839 20.073,59.351 z" /></g></g></g></g><g
       id="g192"><g
         clip-path="url(#clipPath198)"
         id="g194"><g
           id="g200"><g
             id="g202"><path
               id="path210"
               style="fill:url(#radialGradient208);stroke:none"
               d="m 219.271,223.471 v -122.19 h 19.2 v 45.908 h 9.076 c 19.2,0 28.628,10.647 28.628,30.196 v 0 15.886 c 0,19.551 -9.428,30.2 -28.628,30.2 v 0 z m 19.2,-17.457 h 9.076 c 6.111,0 9.426,-2.793 9.426,-11.521 v 0 -18.329 c 0,-8.725 -3.315,-11.519 -9.426,-11.519 v 0 h -9.076 z" /></g></g></g></g><g
       id="g212"><g
         clip-path="url(#clipPath218)"
         id="g214"><g
           id="g220"><g
             id="g222"><path
               id="path230"
               style="fill:url(#radialGradient228);stroke:none"
               d="m 285.944,223.471 v -122.19 h 52.37 v 17.453 h -33.166 v 35.785 h 26.358 v 17.457 h -26.358 v 34.038 h 33.166 v 17.457 z" /></g></g></g></g><g
       id="g232"><g
         clip-path="url(#clipPath238)"
         id="g234"><g
           id="g240"><g
             id="g242"><path
               id="path250"
               style="fill:url(#radialGradient248);stroke:none"
               d="m 350.184,223.471 v -122.19 h 19.201 v 49.747 h 6.631 c 8.729,0 12.57,-4.189 12.57,-15.537 v 0 -19.2 c 0,-9.951 0.699,-11.868 1.745,-15.01 v 0 h 19.551 c -1.921,4.537 -2.095,8.901 -2.095,14.836 v 0 18.851 c 0,12.744 -3.142,21.995 -12.743,26.01 v 0 c 8.553,4.014 12.568,12.22 12.568,24.786 v 0 9.603 c 0,18.852 -8.553,28.104 -28.453,28.104 v 0 z m 19.201,-17.457 h 9.251 c 6.808,0 9.774,-3.839 9.774,-12.567 v 0 -12.044 c 0,-9.777 -4.364,-12.919 -11.521,-12.919 v 0 h -7.504 z" /></g></g></g></g><g
       id="g252"><g
         clip-path="url(#clipPath258)"
         id="g254"><g
           id="g260"><g
             id="g262"><path
               id="path270"
               style="fill:url(#radialGradient268);stroke:none"
               d="m 420.352,101.281 h 19.201 v 122.19 h -19.201 z" /></g></g></g></g><g
       id="g272"><g
         clip-path="url(#clipPath278)"
         id="g274"><g
           id="g280"><g
             id="g282"><path
               id="path290"
               style="fill:url(#radialGradient288);stroke:none"
               d="m 453.515,223.471 v -122.19 h 52.367 v 17.453 h -33.165 v 35.785 h 26.357 v 17.457 h -26.357 v 34.038 h 33.165 v 17.457 z" /></g></g></g></g><g
       id="g292"><g
         clip-path="url(#clipPath298)"
         id="g294"><g
           id="g300"><g
             id="g302"><path
               id="path310"
               style="fill:url(#radialGradient308);stroke:none"
               d="m 561.389,223.471 v -73.14 l -19.726,73.14 h -24.088 v -122.19 h 17.281 v 88.501 l 23.913,-88.501 h 19.728 v 122.19 z" /></g></g></g></g><g
       id="g312"><g
         clip-path="url(#clipPath318)"
         id="g314"><g
           id="g320"><g
             id="g322"><path
               id="path330"
               style="fill:url(#radialGradient328);stroke:none"
               d="m 590.711,194.143 v -63.539 c 0,-19.549 9.774,-30.721 28.627,-30.721 v 0 c 18.853,0 28.628,11.172 28.628,30.721 v 0 16.235 h -18.153 v -17.456 c 0,-8.728 -3.841,-11.871 -9.951,-11.871 v 0 c -6.111,0 -9.949,3.143 -9.949,11.871 v 0 65.984 c 0,8.727 3.838,12.044 9.949,12.044 v 0 c 6.11,0 9.951,-3.317 9.951,-12.044 v 0 -13.092 h 18.153 v 11.868 c 0,19.551 -9.775,30.723 -28.628,30.723 v 0 c -18.853,0 -28.627,-11.172 -28.627,-30.723" /></g></g></g></g><g
       id="g332"><g
         clip-path="url(#clipPath338)"
         id="g334"><g
           id="g340"><g
             id="g342"><path
               id="path350"
               style="fill:url(#radialGradient348);stroke:none"
               d="m 659.655,223.471 v -122.19 h 52.369 v 17.453 h -33.165 v 35.785 h 26.358 v 17.457 h -26.358 v 34.038 h 33.165 v 17.457 z" /></g></g></g></g><g
       id="g352"><g
         clip-path="url(#clipPath358)"
         id="g354"><g
           id="g360"><g
             id="g362"><path
               id="path370"
               style="fill:url(#linearGradient368);stroke:none"
               d="M 222.901,90.467 V 51.771 h 7.761 v 14.033 h 7.043 c 4.447,0 7.946,1.124 10.499,3.375 v 0 c 2.55,2.249 3.827,5.225 3.827,8.928 v 0 c 0,3.704 -1.277,6.689 -3.827,8.956 v 0 c -2.553,2.271 -6.052,3.404 -10.499,3.404 v 0 z m 7.761,-5.98 h 7.043 c 2.179,0 3.822,-0.609 4.93,-1.821 v 0 c 1.107,-1.214 1.661,-2.75 1.661,-4.611 v 0 c 0,-1.826 -0.558,-3.325 -1.673,-4.504 v 0 c -1.117,-1.179 -2.758,-1.769 -4.918,-1.769 v 0 h -7.043 z" /></g></g></g></g><g
       id="g372"><g
         clip-path="url(#clipPath378)"
         id="g374"><g
           id="g380"><g
             id="g382"><path
               id="path390"
               style="fill:url(#linearGradient388);stroke:none"
               d="m 266.494,86.36 c -2.966,-3.109 -4.449,-7.029 -4.449,-11.759 v 0 -6.964 c 0,-4.75 1.488,-8.673 4.464,-11.773 v 0 c 2.976,-3.102 6.857,-4.652 11.64,-4.652 v 0 c 4.801,0 8.7,1.545 11.694,4.638 v 0 c 2.995,3.092 4.493,7.02 4.493,11.787 v 0 6.964 c 0,4.73 -1.507,8.65 -4.519,11.759 v 0 c -3.014,3.109 -6.919,4.663 -11.721,4.663 v 0 c -4.765,0 -8.632,-1.554 -11.602,-4.663 m 5.489,-26.217 c -1.471,1.929 -2.206,4.427 -2.206,7.494 v 0 7.016 c 0,3.012 0.732,5.484 2.194,7.414 v 0 c 1.462,1.933 3.504,2.898 6.125,2.898 v 0 c 2.658,0 4.741,-0.965 6.245,-2.898 v 0 c 1.507,-1.93 2.26,-4.402 2.26,-7.414 v 0 -7.016 c 0,-3.067 -0.744,-5.565 -2.232,-7.494 v 0 c -1.487,-1.934 -3.563,-2.898 -6.22,-2.898 v 0 c -2.638,0 -4.695,0.964 -6.166,2.898" /></g></g></g></g><g
       id="g392"><g
         clip-path="url(#clipPath398)"
         id="g394"><g
           id="g400"><g
             id="g402"><path
               id="path410"
               style="fill:url(#linearGradient408);stroke:none"
               d="m 309.385,86.36 c -2.967,-3.109 -4.45,-7.029 -4.45,-11.759 v 0 -6.964 c 0,-4.75 1.488,-8.673 4.464,-11.773 v 0 c 2.976,-3.102 6.857,-4.652 11.64,-4.652 v 0 c 4.801,0 8.699,1.545 11.695,4.638 v 0 c 2.995,3.092 4.492,7.02 4.492,11.787 v 0 6.964 c 0,4.73 -1.507,8.65 -4.519,11.759 v 0 c -3.014,3.109 -6.919,4.663 -11.72,4.663 v 0 c -4.767,0 -8.634,-1.554 -11.602,-4.663 m 5.488,-26.217 c -1.471,1.929 -2.206,4.427 -2.206,7.494 v 0 7.016 c 0,3.012 0.732,5.484 2.194,7.414 v 0 c 1.462,1.933 3.504,2.898 6.126,2.898 v 0 c 2.657,0 4.739,-0.965 6.244,-2.898 v 0 c 1.507,-1.93 2.261,-4.402 2.261,-7.414 v 0 -7.016 c 0,-3.067 -0.745,-5.565 -2.232,-7.494 v 0 c -1.489,-1.934 -3.563,-2.898 -6.221,-2.898 v 0 c -2.639,0 -4.694,0.964 -6.166,2.898" /></g></g></g></g><g
       id="g412"><g
         clip-path="url(#clipPath418)"
         id="g414"><g
           id="g420"><g
             id="g422"><path
               id="path430"
               style="fill:url(#linearGradient428);stroke:none"
               d="M 348.807,90.467 V 51.771 h 25.088 v 5.954 h -17.328 v 32.742 z" /></g></g></g></g><g
       id="g432"><g
         clip-path="url(#clipPath438)"
         id="g434"><g
           id="g440"><g
             id="g442"><path
               id="path450"
               style="fill:url(#linearGradient448);stroke:none"
               d="m 407.769,88.394 c -1.877,-1.754 -2.816,-4.245 -2.816,-7.468 v 0 c 0,-1.364 0.283,-2.707 0.851,-4.026 v 0 c 0.566,-1.322 1.435,-2.779 2.605,-4.374 v 0 c -2.323,-1.719 -4.045,-3.335 -5.17,-4.849 v 0 c -1.124,-1.514 -1.688,-3.344 -1.688,-5.489 v 0 c 0,-3.26 1.144,-5.904 3.428,-7.933 v 0 c 2.286,-2.028 5.36,-3.043 9.223,-3.043 v 0 c 1.825,0 3.534,0.245 5.129,0.731 v 0 c 1.595,0.488 3.145,1.218 4.652,2.193 v 0 l 2.046,-2.365 h 8.61 l 0.055,0.133 -5.344,6.244 c 1.329,1.614 2.308,3.465 2.938,5.555 v 0 c 0.627,2.091 0.943,4.395 0.943,6.909 v 0 h -6.192 c 0,-1.38 -0.178,-2.693 -0.532,-3.931 v 0 c -0.354,-1.241 -0.851,-2.384 -1.487,-3.43 v 0 l -7.177,8.372 2.713,1.913 c 1.468,1.153 2.581,2.401 3.334,3.749 v 0 c 0.752,1.345 1.13,2.94 1.13,4.782 v 0 c 0,2.482 -0.882,4.595 -2.646,6.34 v 0 c -1.762,1.744 -4.053,2.616 -6.87,2.616 v 0 c -3.278,0 -5.856,-0.876 -7.735,-2.629 m 4.652,-9.674 c -0.354,0.78 -0.532,1.541 -0.532,2.285 v 0 c 0,1.134 0.302,2.091 0.906,2.871 v 0 c 0.601,0.78 1.433,1.17 2.497,1.17 v 0 c 1.027,0 1.834,-0.342 2.418,-1.025 v 0 c 0.585,-0.682 0.877,-1.474 0.877,-2.377 v 0 c 0,-0.799 -0.173,-1.533 -0.518,-2.208 v 0 c -0.345,-0.672 -1.015,-1.329 -2.006,-1.966 v 0 l -2.021,-1.302 c -0.727,0.922 -1.267,1.773 -1.621,2.552 m -1.647,-20.026 c -0.974,1.017 -1.462,2.316 -1.462,3.894 v 0 c 0,0.796 0.195,1.602 0.585,2.417 v 0 c 0.39,0.816 1.108,1.647 2.154,2.499 v 0 l 0.237,0.185 7.842,-9.087 c -0.87,-0.48 -1.773,-0.839 -2.713,-1.077 v 0 c -0.938,-0.24 -1.877,-0.359 -2.816,-0.359 v 0 c -1.578,0 -2.853,0.509 -3.827,1.528" /></g></g></g></g><g
       id="g452"><g
         clip-path="url(#clipPath458)"
         id="g454"><g
           id="g460"><g
             id="g462"><path
               id="path470"
               style="fill:url(#linearGradient468);stroke:none"
               d="m 467.134,88.007 c -2.605,-2.011 -3.908,-4.601 -3.908,-7.772 v 0 c 0,-3.154 1.156,-5.643 3.468,-7.469 v 0 c 2.313,-1.825 5.701,-3.411 10.167,-4.757 v 0 c 2.605,-0.798 4.426,-1.648 5.462,-2.552 v 0 c 1.036,-0.904 1.555,-2.099 1.555,-3.587 v 0 c 0,-1.452 -0.547,-2.615 -1.636,-3.483 v 0 c -1.088,-0.867 -2.672,-1.302 -4.744,-1.302 v 0 c -2.303,0 -4.129,0.542 -5.474,1.621 v 0 c -1.348,1.082 -2.021,2.765 -2.021,5.052 v 0 h -7.52 l -0.053,-0.16 c -0.09,-4.112 1.36,-7.202 4.345,-9.277 v 0 c 2.985,-2.072 6.558,-3.109 10.723,-3.109 v 0 c 4.252,0 7.673,0.957 10.259,2.871 v 0 c 2.586,1.913 3.881,4.526 3.881,7.84 v 0 c 0,3.17 -1.116,5.728 -3.348,7.668 v 0 c -2.232,1.939 -5.477,3.512 -9.729,4.718 v 0 c -2.781,0.939 -4.741,1.827 -5.874,2.669 v 0 c -1.134,0.841 -1.7,1.919 -1.7,3.23 v 0 c 0,1.436 0.523,2.613 1.569,3.535 v 0 c 1.044,0.92 2.524,1.381 4.438,1.381 v 0 c 2.108,0 3.746,-0.519 4.915,-1.554 v 0 c 1.17,-1.037 1.755,-2.521 1.755,-4.453 v 0 h 7.52 l 0.055,0.16 c 0.088,3.508 -1.174,6.344 -3.786,8.505 v 0 c -2.615,2.162 -6.066,3.241 -10.352,3.241 v 0 c -4.041,0 -7.364,-1.005 -9.967,-3.016" /></g></g></g></g><g
       id="g472"><g
         clip-path="url(#clipPath478)"
         id="g474"><g
           id="g480"><g
             id="g482"><path
               id="path490"
               style="fill:url(#linearGradient488);stroke:none"
               d="M 502.793,90.467 V 51.771 h 7.762 v 14.033 h 7.042 c 4.447,0 7.946,1.124 10.5,3.375 v 0 c 2.55,2.249 3.826,5.225 3.826,8.928 v 0 c 0,3.704 -1.276,6.689 -3.826,8.956 v 0 c -2.554,2.271 -6.053,3.404 -10.5,3.404 v 0 z m 7.762,-5.98 h 7.042 c 2.18,0 3.822,-0.609 4.93,-1.821 v 0 c 1.107,-1.214 1.662,-2.75 1.662,-4.611 v 0 c 0,-1.826 -0.559,-3.325 -1.674,-4.504 v 0 c -1.117,-1.179 -2.757,-1.769 -4.918,-1.769 v 0 h -7.042 z" /></g></g></g></g><g
       id="g492"><g
         clip-path="url(#clipPath498)"
         id="g494"><g
           id="g500"><g
             id="g502"><path
               id="path510"
               style="fill:url(#linearGradient508);stroke:none"
               d="m 548.156,90.467 -13.05,-38.696 h 8.105 l 2.606,8.345 h 12.545 l 2.631,-8.345 h 8.106 l -12.997,38.696 z m 3.881,-10.632 h 0.159 l 4.278,-13.634 h -8.744 z" /></g></g></g></g><g
       id="g512"><g
         clip-path="url(#clipPath518)"
         id="g514"><g
           id="g520"><g
             id="g522"><path
               id="path530"
               style="fill:url(#linearGradient528);stroke:none"
               d="m 79.975,71.474 c 0,-0.703 51.965,-1.327 131.746,-1.709 v 0 3.419 C 131.94,72.803 79.975,72.179 79.975,71.474" /></g></g></g></g><g
       id="g532"><g
         clip-path="url(#clipPath538)"
         id="g534"><g
           id="g540"><g
             id="g542"><path
               id="path550"
               style="fill:url(#linearGradient548);stroke:none"
               d="m 575.606,69.743 c 82.416,0.38 136.418,1.014 136.418,1.731 v 0 c 0,0.719 -54.002,1.352 -136.418,1.732 v 0 z" /></g></g></g></g></g></svg>