<?xml version="1.0" encoding="UTF-8"?>
<svg version="1.1" viewBox="0 0 1056 816" xml:space="preserve" xmlns="http://www.w3.org/2000/svg" xmlns:cc="http://creativecommons.org/ns#" xmlns:dc="http://purl.org/dc/elements/1.1/" xmlns:rdf="http://www.w3.org/1999/02/22-rdf-syntax-ns#"><metadata><rdf:RDF><cc:Work rdf:about=""><dc:format>image/svg+xml</dc:format><dc:type rdf:resource="http://purl.org/dc/dcmitype/StillImage"/></cc:Work></rdf:RDF></metadata><defs><clipPath id="ax"><path d="m173.1 381.38c50.077 10.285 92.552-23.249 92.552-23.249 53.206-34.875 108.65-32.639 108.65-32.639 87.633-1.341 139.05 59.913 139.05 59.913-49.63-33.98-104.62-32.639-104.62-32.639-45.604-4.024-117.59 39.345-117.59 39.345-24.215 12.556-44.244 17.035-60.498 17.035-40.469-1e-3 -57.539-27.766-57.539-27.766"/></clipPath><radialGradient id="h" cx="0" cy="0" r="1" gradientTransform="matrix(123.88 0 0 -123.88 343.22 367.31)" gradientUnits="userSpaceOnUse"><stop stop-color="#1c75bc" offset="0"/><stop stop-color="#2b3990" offset="1"/></radialGradient><clipPath id="am"><path d="m441.58 386.97c-2.508-0.133-5.023-0.163-7.534-0.099-11.804 0.301-23.499 2.654-34.726 6.235-9.498 3.03-18.709 6.948-27.561 11.526-7.383 3.824-14.161 8.728-21.651 12.351-11.258 5.447-23.235 9.404-35.562 11.546-10.268 1.783-20.747 2.308-31.143 1.576-8.344-0.586-16.634-1.972-24.714-4.133-5.544-1.483-11.004-3.321-16.277-5.589-1.466-0.63-2.92-1.294-4.347-2.009-0.339-0.17-1.096-0.776-1.484-0.777 52.87 0.112 101.05-32.304 101.05-32.304 44.935-25.82 72.767-22.466 72.767-22.466 109.65-0.671 90.205 86.515 90.205 86.515-2.682-62.372-59.019-62.372-59.019-62.372"/></clipPath><radialGradient id="c" cx="0" cy="0" r="1" gradientTransform="matrix(98.692 0 0 -98.692 369.26 406.01)" gradientUnits="userSpaceOnUse"><stop stop-color="#27aae1" offset="0"/><stop stop-color="#1c75bc" offset="1"/></radialGradient><clipPath id="ad"><path d="m404.36 454.04c-1.601-0.38-3.167-1.177-4.513-2.103-2.892-1.991-4.783-5.025-5.071-8.551-0.095-1.159-0.245-2.478 0.208-3.581 0.676-1.644 2.268-2.846 3.789-3.671 3.788-2.057 8.156-1.173 11.789 0.794 1.664 0.902 2.79 2.469 4.118 3.768 1.6 1.564 3.273 3.055 5.012 4.464 3.25 2.633 6.743 4.996 10.488 6.869 0 0-6.813 3.114-16.286 3.114-2.961 0-6.18-0.304-9.534-1.103"/></clipPath><radialGradient id="b" cx="0" cy="0" r="1" gradientTransform="matrix(14.44 0 0 -14.44 412.43 445.05)" gradientUnits="userSpaceOnUse"><stop stop-color="#27aae1" offset="0"/><stop stop-color="#1c75bc" offset="1"/></radialGradient><clipPath id="ac"><path d="m424.52 498.16c-3.605-0.858-7.148-2.897-9.857-5.38-2.414-2.211-4.249-4.998-5.21-8.135-0.585-1.909-0.845-3.906-0.845-5.899 1e-3 -2.556 0.521-5.258 2.466-7.125 2.076-1.992 4.759-3.622 7.528-4.414 2.764-0.791 5.688-0.8 8.495-0.231 1.792 0.364 3.534 0.954 5.207 1.69 3.586 1.576 5.875 4.066 8.594 6.769 3.131 3.113 6.438 6.054 9.898 8.798 2.482 1.967 5.045 3.833 7.694 5.57 1.386 0.907 2.793 1.78 4.225 2.612 0.731 0.424 1.467 0.837 2.209 1.239 0.312 0.168 1.988 1.309 2.27 1.181-0.052 0.024-11.296 5.147-26.918 5.147-4.892 0-10.214-0.502-15.756-1.822m42.674-3.325"/></clipPath><radialGradient id="a" cx="0" cy="0" r="1" gradientTransform="matrix(23.844 0 0 -23.844 437.9 483.27)" gradientUnits="userSpaceOnUse"><stop stop-color="#27aae1" offset="0"/><stop stop-color="#1c75bc" offset="1"/></radialGradient><clipPath id="ab"><path d="m451.77 471.9c-1.754-1.945-2.585-4.452-2.086-7.044 0.168-0.875 0.473-1.714 0.865-2.512 0.217-0.44 0.511-0.822 0.856-1.162 1.209-1.194 3.038-1.887 4.326-2.89 1.407-1.095 2.702-2.331 3.874-3.674 2.692-3.086 4.731-6.719 6.145-10.554 0.566-1.536 1.389-3.445 1.445-5.114 0.797-23.473-24.946-41.917-24.946-41.917 54.312 15.758 48.63 52.302 48.628 52.312-0.529 3.399-0.743 6.699-1.81 10.008-0.843 2.614-2.019 5.13-3.588 7.39-3.501 5.036-8.825 8.337-14.752 9.73-2.032 0.477-4.101 0.748-6.136 0.748-4.782-1e-3 -9.371-1.496-12.821-5.321"/></clipPath><radialGradient id="q" cx="0" cy="0" r="1" gradientTransform="matrix(33.187 0 0 -33.187 466.65 437.12)" gradientUnits="userSpaceOnUse"><stop stop-color="#27aae1" offset="0"/><stop stop-color="#1c75bc" offset="1"/></radialGradient><clipPath id="bb"><path d="m391.26 533.07c-35.057-13.78-61.369-40.226-75.771-72.028 13.961 24.512 36.068 44.598 64.366 55.721 65.802 25.864 140.11-6.511 165.98-72.313 25.864-65.803-6.511-140.11-72.313-165.98-28.297-11.123-58.165-11.467-85.08-3.022 32.202-13.483 69.479-14.935 104.54-1.155 71.459 28.089 106.62 108.79 78.53 180.25-21.525 54.759-73.946 88.201-129.42 88.203-16.92 1e-3 -34.121-3.109-50.821-9.674"/></clipPath><radialGradient id="p" cx="0" cy="0" r="1" gradientTransform="matrix(-119.98 -47.161 -47.161 119.98 461.73 411.39)" gradientUnits="userSpaceOnUse"><stop stop-color="#27aae1" offset="0"/><stop stop-color="#1c75bc" offset="1"/></radialGradient><clipPath id="ba"><path d="m396.77 542.34c30.548 10.11 64.62 10.25 97.093-1.933 75.511-28.33 113.76-112.51 85.431-188.02-28.33-75.512-112.51-113.76-188.02-85.431-32.472 12.183-58.045 34.698-74.404 62.407 16.992-36.015 47.472-65.71 87.703-80.803 82.002-30.765 173.42 10.771 204.18 92.774 30.765 82.002-10.772 173.42-92.774 204.18-18.342 6.881-37.161 10.143-55.66 10.144-22.074 0-43.697-4.643-63.55-13.321"/></clipPath><radialGradient id="o" cx="0" cy="0" r="1" gradientTransform="matrix(-137.68 51.655 51.655 137.68 482.79 388.59)" gradientUnits="userSpaceOnUse"><stop stop-color="#27aae1" offset="0"/><stop stop-color="#1c75bc" offset="1"/></radialGradient><clipPath id="az"><path d="m79.975 223.47v-122.19h52.37v17.453h-33.166v35.785h26.358v17.457h-26.358v34.038h33.166v17.457z"/></clipPath><radialGradient id="n" cx="0" cy="0" r="1" gradientTransform="matrix(47.001 0 0 -47.001 106.16 162.38)" gradientUnits="userSpaceOnUse"><stop stop-color="#414042" offset="0"/><stop offset="1"/></radialGradient><clipPath id="ay"><path d="m190.47 223.47-14.838-45.037-14.487 45.037h-19.9l20.074-59.351-21.47-62.839h17.98l15.883 48.351 15.712-48.351h20.249l-21.471 62.839 20.073 59.351z"/></clipPath><radialGradient id="m" cx="0" cy="0" r="1" gradientTransform="matrix(49.757 0 0 -49.757 174.76 162.38)" gradientUnits="userSpaceOnUse"><stop stop-color="#414042" offset="0"/><stop offset="1"/></radialGradient><clipPath id="aw"><path d="m219.27 223.47v-122.19h19.2v45.908h9.076c19.2 0 28.628 10.647 28.628 30.196v15.886c0 19.551-9.428 30.2-28.628 30.2zm19.2-17.457h9.076c6.111 0 9.426-2.793 9.426-11.521v-18.329c0-8.725-3.315-11.519-9.426-11.519h-9.076z"/></clipPath><radialGradient id="l" cx="0" cy="0" r="1" gradientTransform="matrix(47.656 0 0 -47.656 247.72 162.38)" gradientUnits="userSpaceOnUse"><stop stop-color="#414042" offset="0"/><stop offset="1"/></radialGradient><clipPath id="av"><path d="m285.94 223.47v-122.19h52.37v17.453h-33.166v35.785h26.358v17.457h-26.358v34.038h33.166v17.457z"/></clipPath><radialGradient id="k" cx="0" cy="0" r="1" gradientTransform="matrix(47.001 0 0 -47.001 312.13 162.38)" gradientUnits="userSpaceOnUse"><stop stop-color="#414042" offset="0"/><stop offset="1"/></radialGradient><clipPath id="au"><path d="m350.18 223.47v-122.19h19.201v49.747h6.631c8.729 0 12.57-4.189 12.57-15.537v-19.2c0-9.951 0.699-11.868 1.745-15.01h19.551c-1.921 4.537-2.095 8.901-2.095 14.836v18.851c0 12.744-3.142 21.995-12.743 26.01 8.553 4.014 12.568 12.22 12.568 24.786v9.603c0 18.852-8.553 28.104-28.453 28.104zm19.201-17.457h9.251c6.808 0 9.774-3.839 9.774-12.567v-12.044c0-9.777-4.364-12.919-11.521-12.919h-7.504z"/></clipPath><radialGradient id="j" cx="0" cy="0" r="1" gradientTransform="matrix(48.081 0 0 -48.081 380.03 162.38)" gradientUnits="userSpaceOnUse"><stop stop-color="#414042" offset="0"/><stop offset="1"/></radialGradient><clipPath id="at"><path d="m420.35 101.28h19.201v122.19h-19.201z"/></clipPath><radialGradient id="i" cx="0" cy="0" r="1" gradientTransform="matrix(43.731 0 0 -43.731 429.95 162.38)" gradientUnits="userSpaceOnUse"><stop stop-color="#414042" offset="0"/><stop offset="1"/></radialGradient><clipPath id="as"><path d="m453.52 223.47v-122.19h52.367v17.453h-33.165v35.785h26.357v17.457h-26.357v34.038h33.165v17.457z"/></clipPath><radialGradient id="g" cx="0" cy="0" r="1" gradientTransform="matrix(47.001 0 0 -47.001 479.7 162.38)" gradientUnits="userSpaceOnUse"><stop stop-color="#414042" offset="0"/><stop offset="1"/></radialGradient><clipPath id="ar"><path d="m561.39 223.47v-73.14l-19.726 73.14h-24.088v-122.19h17.281v88.501l23.913-88.501h19.728v122.19z"/></clipPath><radialGradient id="f" cx="0" cy="0" r="1" gradientTransform="matrix(48.273 0 0 -48.273 548.04 162.38)" gradientUnits="userSpaceOnUse"><stop stop-color="#414042" offset="0"/><stop offset="1"/></radialGradient><clipPath id="aq"><path d="m590.71 194.14v-63.539c0-19.549 9.774-30.721 28.627-30.721s28.628 11.172 28.628 30.721v16.235h-18.153v-17.456c0-8.728-3.841-11.871-9.951-11.871-6.111 0-9.949 3.143-9.949 11.871v65.984c0 8.727 3.838 12.044 9.949 12.044 6.11 0 9.951-3.317 9.951-12.044v-13.092h18.153v11.868c0 19.551-9.775 30.723-28.628 30.723s-28.627-11.172-28.627-30.723"/></clipPath><radialGradient id="e" cx="0" cy="0" r="1" gradientTransform="matrix(48.604 0 0 -48.604 619.34 162.37)" gradientUnits="userSpaceOnUse"><stop stop-color="#414042" offset="0"/><stop offset="1"/></radialGradient><clipPath id="ap"><path d="m659.66 223.47v-122.19h52.369v17.453h-33.165v35.785h26.358v17.457h-26.358v34.038h33.165v17.457z"/></clipPath><radialGradient id="d" cx="0" cy="0" r="1" gradientTransform="matrix(47.001 0 0 -47.001 685.84 162.38)" gradientUnits="userSpaceOnUse"><stop stop-color="#414042" offset="0"/><stop offset="1"/></radialGradient><clipPath id="ao"><path d="m222.9 90.467v-38.696h7.761v14.033h7.043c4.447 0 7.946 1.124 10.499 3.375 2.55 2.249 3.827 5.225 3.827 8.928 0 3.704-1.277 6.689-3.827 8.956-2.553 2.271-6.052 3.404-10.499 3.404zm7.761-5.98h7.043c2.179 0 3.822-0.609 4.93-1.821 1.107-1.214 1.661-2.75 1.661-4.611 0-1.826-0.558-3.325-1.673-4.504-1.117-1.179-2.758-1.769-4.918-1.769h-7.043z"/></clipPath><linearGradient id="aa" x2="1" gradientTransform="matrix(0 38.697 38.697 0 237.47 51.77)" gradientUnits="userSpaceOnUse"><stop stop-color="#1c75bc" offset="0"/><stop stop-color="#27aae1" offset="1"/></linearGradient><clipPath id="an"><path d="m266.49 86.36c-2.966-3.109-4.449-7.029-4.449-11.759v-6.964c0-4.75 1.488-8.673 4.464-11.773 2.976-3.102 6.857-4.652 11.64-4.652 4.801 0 8.7 1.545 11.694 4.638 2.995 3.092 4.493 7.02 4.493 11.787v6.964c0 4.73-1.507 8.65-4.519 11.759-3.014 3.109-6.919 4.663-11.721 4.663-4.765 0-8.632-1.554-11.602-4.663m5.489-26.217c-1.471 1.929-2.206 4.427-2.206 7.494v7.016c0 3.012 0.732 5.484 2.194 7.414 1.462 1.933 3.504 2.898 6.125 2.898 2.658 0 4.741-0.965 6.245-2.898 1.507-1.93 2.26-4.402 2.26-7.414v-7.016c0-3.067-0.744-5.565-2.232-7.494-1.487-1.934-3.563-2.898-6.22-2.898-2.638 0-4.695 0.964-6.166 2.898"/></clipPath><linearGradient id="z" x2="1" gradientTransform="matrix(0 39.812 39.812 0 278.19 51.212)" gradientUnits="userSpaceOnUse"><stop stop-color="#1c75bc" offset="0"/><stop stop-color="#27aae1" offset="1"/></linearGradient><clipPath id="al"><path d="m309.38 86.36c-2.967-3.109-4.45-7.029-4.45-11.759v-6.964c0-4.75 1.488-8.673 4.464-11.773 2.976-3.102 6.857-4.652 11.64-4.652 4.801 0 8.699 1.545 11.695 4.638 2.995 3.092 4.492 7.02 4.492 11.787v6.964c0 4.73-1.507 8.65-4.519 11.759-3.014 3.109-6.919 4.663-11.72 4.663-4.767 0-8.634-1.554-11.602-4.663m5.488-26.217c-1.471 1.929-2.206 4.427-2.206 7.494v7.016c0 3.012 0.732 5.484 2.194 7.414 1.462 1.933 3.504 2.898 6.126 2.898 2.657 0 4.739-0.965 6.244-2.898 1.507-1.93 2.261-4.402 2.261-7.414v-7.016c0-3.067-0.745-5.565-2.232-7.494-1.489-1.934-3.563-2.898-6.221-2.898-2.639 0-4.694 0.964-6.166 2.898"/></clipPath><linearGradient id="y" x2="1" gradientTransform="matrix(0 39.812 39.812 0 321.08 51.212)" gradientUnits="userSpaceOnUse"><stop stop-color="#1c75bc" offset="0"/><stop stop-color="#27aae1" offset="1"/></linearGradient><clipPath id="ak"><path d="m348.81 90.467v-38.696h25.088v5.954h-17.328v32.742z"/></clipPath><linearGradient id="x" x2="1" gradientTransform="matrix(0 38.697 38.697 0 361.35 51.77)" gradientUnits="userSpaceOnUse"><stop stop-color="#1c75bc" offset="0"/><stop stop-color="#27aae1" offset="1"/></linearGradient><clipPath id="aj"><path d="m407.77 88.394c-1.877-1.754-2.816-4.245-2.816-7.468 0-1.364 0.283-2.707 0.851-4.026 0.566-1.322 1.435-2.779 2.605-4.374-2.323-1.719-4.045-3.335-5.17-4.849-1.124-1.514-1.688-3.344-1.688-5.489 0-3.26 1.144-5.904 3.428-7.933 2.286-2.028 5.36-3.043 9.223-3.043 1.825 0 3.534 0.245 5.129 0.731 1.595 0.488 3.145 1.218 4.652 2.193l2.046-2.365h8.61l0.055 0.133-5.344 6.244c1.329 1.614 2.308 3.465 2.938 5.555 0.627 2.091 0.943 4.395 0.943 6.909h-6.192c0-1.38-0.178-2.693-0.532-3.931-0.354-1.241-0.851-2.384-1.487-3.43l-7.177 8.372 2.713 1.913c1.468 1.153 2.581 2.401 3.334 3.749 0.752 1.345 1.13 2.94 1.13 4.782 0 2.482-0.882 4.595-2.646 6.34-1.762 1.744-4.053 2.616-6.87 2.616-3.278 0-5.856-0.876-7.735-2.629m4.652-9.674c-0.354 0.78-0.532 1.541-0.532 2.285 0 1.134 0.302 2.091 0.906 2.871 0.601 0.78 1.433 1.17 2.497 1.17 1.027 0 1.834-0.342 2.418-1.025 0.585-0.682 0.877-1.474 0.877-2.377 0-0.799-0.173-1.533-0.518-2.208-0.345-0.672-1.015-1.329-2.006-1.966l-2.021-1.302c-0.727 0.922-1.267 1.773-1.621 2.552m-1.647-20.026c-0.974 1.017-1.462 2.316-1.462 3.894 0 0.796 0.195 1.602 0.585 2.417 0.39 0.816 1.108 1.647 2.154 2.499l0.237 0.185 7.842-9.087c-0.87-0.48-1.773-0.839-2.713-1.077-0.938-0.24-1.877-0.359-2.816-0.359-1.578 0-2.853 0.509-3.827 1.528"/></clipPath><linearGradient id="w" x2="1" gradientTransform="matrix(0 39.812 39.812 0 418.12 51.212)" gradientUnits="userSpaceOnUse"><stop stop-color="#1c75bc" offset="0"/><stop stop-color="#27aae1" offset="1"/></linearGradient><clipPath id="ai"><path d="m467.13 88.007c-2.605-2.011-3.908-4.601-3.908-7.772 0-3.154 1.156-5.643 3.468-7.469 2.313-1.825 5.701-3.411 10.167-4.757 2.605-0.798 4.426-1.648 5.462-2.552s1.555-2.099 1.555-3.587c0-1.452-0.547-2.615-1.636-3.483-1.088-0.867-2.672-1.302-4.744-1.302-2.303 0-4.129 0.542-5.474 1.621-1.348 1.082-2.021 2.765-2.021 5.052h-7.52l-0.053-0.16c-0.09-4.112 1.36-7.202 4.345-9.277 2.985-2.072 6.558-3.109 10.723-3.109 4.252 0 7.673 0.957 10.259 2.871 2.586 1.913 3.881 4.526 3.881 7.84 0 3.17-1.116 5.728-3.348 7.668-2.232 1.939-5.477 3.512-9.729 4.718-2.781 0.939-4.741 1.827-5.874 2.669-1.134 0.841-1.7 1.919-1.7 3.23 0 1.436 0.523 2.613 1.569 3.535 1.044 0.92 2.524 1.381 4.438 1.381 2.108 0 3.746-0.519 4.915-1.554 1.17-1.037 1.755-2.521 1.755-4.453h7.52l0.055 0.16c0.088 3.508-1.174 6.344-3.786 8.505-2.615 2.162-6.066 3.241-10.352 3.241-4.041 0-7.364-1.005-9.967-3.016"/></clipPath><linearGradient id="v" x2="1" gradientTransform="matrix(0 39.812 39.812 0 477.03 51.212)" gradientUnits="userSpaceOnUse"><stop stop-color="#1c75bc" offset="0"/><stop stop-color="#27aae1" offset="1"/></linearGradient><clipPath id="ah"><path d="m502.79 90.467v-38.696h7.762v14.033h7.042c4.447 0 7.946 1.124 10.5 3.375 2.55 2.249 3.826 5.225 3.826 8.928 0 3.704-1.276 6.689-3.826 8.956-2.554 2.271-6.053 3.404-10.5 3.404zm7.762-5.98h7.042c2.18 0 3.822-0.609 4.93-1.821 1.107-1.214 1.662-2.75 1.662-4.611 0-1.826-0.559-3.325-1.674-4.504-1.117-1.179-2.757-1.769-4.918-1.769h-7.042z"/></clipPath><linearGradient id="u" x2="1" gradientTransform="matrix(0 38.697 38.697 0 517.36 51.77)" gradientUnits="userSpaceOnUse"><stop stop-color="#1c75bc" offset="0"/><stop stop-color="#27aae1" offset="1"/></linearGradient><clipPath id="ag"><path d="m548.16 90.467-13.05-38.696h8.105l2.606 8.345h12.545l2.631-8.345h8.106l-12.997 38.696zm3.881-10.632h0.159l4.278-13.634h-8.744z"/></clipPath><linearGradient id="t" x2="1" gradientTransform="matrix(0 38.697 38.697 0 552.1 51.77)" gradientUnits="userSpaceOnUse"><stop stop-color="#1c75bc" offset="0"/><stop stop-color="#27aae1" offset="1"/></linearGradient><clipPath id="af"><path d="m79.975 71.474c0-0.703 51.965-1.327 131.75-1.709v3.419c-79.781-0.381-131.75-1.005-131.75-1.71"/></clipPath><linearGradient id="s" x2="1" gradientTransform="matrix(0 3.4193 3.4193 0 145.85 69.765)" gradientUnits="userSpaceOnUse"><stop stop-color="#1c75bc" offset="0"/><stop stop-color="#27aae1" offset="1"/></linearGradient><clipPath id="ae"><path d="m575.61 69.743c82.416 0.38 136.42 1.014 136.42 1.731 0 0.719-54.002 1.352-136.42 1.732z"/></clipPath><linearGradient id="r" x2="1" gradientTransform="matrix(0 3.4632 3.4632 0 643.82 69.743)" gradientUnits="userSpaceOnUse"><stop stop-color="#1c75bc" offset="0"/><stop stop-color="#27aae1" offset="1"/></linearGradient></defs><g transform="matrix(1.3333 0 0 -1.3333 0 816)"><g clip-path="url(#ax)"><path d="m173.1 381.38c50.077 10.285 92.552-23.249 92.552-23.249 53.206-34.875 108.65-32.639 108.65-32.639 87.633-1.341 139.05 59.913 139.05 59.913-49.63-33.98-104.62-32.639-104.62-32.639-45.604-4.024-117.59 39.345-117.59 39.345-24.215 12.556-44.244 17.035-60.498 17.035-40.469-1e-3 -57.539-27.766-57.539-27.766" fill="url(#h)"/></g><g clip-path="url(#am)"><path d="m441.58 386.97c-2.508-0.133-5.023-0.163-7.534-0.099-11.804 0.301-23.499 2.654-34.726 6.235-9.498 3.03-18.709 6.948-27.561 11.526-7.383 3.824-14.161 8.728-21.651 12.351-11.258 5.447-23.235 9.404-35.562 11.546-10.268 1.783-20.747 2.308-31.143 1.576-8.344-0.586-16.634-1.972-24.714-4.133-5.544-1.483-11.004-3.321-16.277-5.589-1.466-0.63-2.92-1.294-4.347-2.009-0.339-0.17-1.096-0.776-1.484-0.777 52.87 0.112 101.05-32.304 101.05-32.304 44.935-25.82 72.767-22.466 72.767-22.466 109.65-0.671 90.205 86.515 90.205 86.515-2.682-62.372-59.019-62.372-59.019-62.372" fill="url(#c)"/></g><g clip-path="url(#ad)"><path d="m404.36 454.04c-1.601-0.38-3.167-1.177-4.513-2.103-2.892-1.991-4.783-5.025-5.071-8.551-0.095-1.159-0.245-2.478 0.208-3.581 0.676-1.644 2.268-2.846 3.789-3.671 3.788-2.057 8.156-1.173 11.789 0.794 1.664 0.902 2.79 2.469 4.118 3.768 1.6 1.564 3.273 3.055 5.012 4.464 3.25 2.633 6.743 4.996 10.488 6.869 0 0-6.813 3.114-16.286 3.114-2.961 0-6.18-0.304-9.534-1.103" fill="url(#b)"/></g><g clip-path="url(#ac)"><path d="m424.52 498.16c-3.605-0.858-7.148-2.897-9.857-5.38-2.414-2.211-4.249-4.998-5.21-8.135-0.585-1.909-0.845-3.906-0.845-5.899 1e-3 -2.556 0.521-5.258 2.466-7.125 2.076-1.992 4.759-3.622 7.528-4.414 2.764-0.791 5.688-0.8 8.495-0.231 1.792 0.364 3.534 0.954 5.207 1.69 3.586 1.576 5.875 4.066 8.594 6.769 3.131 3.113 6.438 6.054 9.898 8.798 2.482 1.967 5.045 3.833 7.694 5.57 1.386 0.907 2.793 1.78 4.225 2.612 0.731 0.424 1.467 0.837 2.209 1.239 0.312 0.168 1.988 1.309 2.27 1.181-0.052 0.024-11.296 5.147-26.918 5.147-4.892 0-10.214-0.502-15.756-1.822m42.674-3.325" fill="url(#a)"/></g><g clip-path="url(#ab)"><path d="m451.77 471.9c-1.754-1.945-2.585-4.452-2.086-7.044 0.168-0.875 0.473-1.714 0.865-2.512 0.217-0.44 0.511-0.822 0.856-1.162 1.209-1.194 3.038-1.887 4.326-2.89 1.407-1.095 2.702-2.331 3.874-3.674 2.692-3.086 4.731-6.719 6.145-10.554 0.566-1.536 1.389-3.445 1.445-5.114 0.797-23.473-24.946-41.917-24.946-41.917 54.312 15.758 48.63 52.302 48.628 52.312-0.529 3.399-0.743 6.699-1.81 10.008-0.843 2.614-2.019 5.13-3.588 7.39-3.501 5.036-8.825 8.337-14.752 9.73-2.032 0.477-4.101 0.748-6.136 0.748-4.782-1e-3 -9.371-1.496-12.821-5.321" fill="url(#q)"/></g><g clip-path="url(#bb)"><path d="m391.26 533.07c-35.057-13.78-61.369-40.226-75.771-72.028 13.961 24.512 36.068 44.598 64.366 55.721 65.802 25.864 140.11-6.511 165.98-72.313 25.864-65.803-6.511-140.11-72.313-165.98-28.297-11.123-58.165-11.467-85.08-3.022 32.202-13.483 69.479-14.935 104.54-1.155 71.459 28.089 106.62 108.79 78.53 180.25-21.525 54.759-73.946 88.201-129.42 88.203-16.92 1e-3 -34.121-3.109-50.821-9.674" fill="url(#p)"/></g><g clip-path="url(#ba)"><path d="m396.77 542.34c30.548 10.11 64.62 10.25 97.093-1.933 75.511-28.33 113.76-112.51 85.431-188.02-28.33-75.512-112.51-113.76-188.02-85.431-32.472 12.183-58.045 34.698-74.404 62.407 16.992-36.015 47.472-65.71 87.703-80.803 82.002-30.765 173.42 10.771 204.18 92.774 30.765 82.002-10.772 173.42-92.774 204.18-18.342 6.881-37.161 10.143-55.66 10.144-22.074 0-43.697-4.643-63.55-13.321" fill="url(#o)"/></g><g clip-path="url(#az)"><path d="m79.975 223.47v-122.19h52.37v17.453h-33.166v35.785h26.358v17.457h-26.358v34.038h33.166v17.457z" fill="url(#n)"/></g><g clip-path="url(#ay)"><path d="m190.47 223.47-14.838-45.037-14.487 45.037h-19.9l20.074-59.351-21.47-62.839h17.98l15.883 48.351 15.712-48.351h20.249l-21.471 62.839 20.073 59.351z" fill="url(#m)"/></g><g clip-path="url(#aw)"><path d="m219.27 223.47v-122.19h19.2v45.908h9.076c19.2 0 28.628 10.647 28.628 30.196v15.886c0 19.551-9.428 30.2-28.628 30.2zm19.2-17.457h9.076c6.111 0 9.426-2.793 9.426-11.521v-18.329c0-8.725-3.315-11.519-9.426-11.519h-9.076z" fill="url(#l)"/></g><g clip-path="url(#av)"><path d="m285.94 223.47v-122.19h52.37v17.453h-33.166v35.785h26.358v17.457h-26.358v34.038h33.166v17.457z" fill="url(#k)"/></g><g clip-path="url(#au)"><path d="m350.18 223.47v-122.19h19.201v49.747h6.631c8.729 0 12.57-4.189 12.57-15.537v-19.2c0-9.951 0.699-11.868 1.745-15.01h19.551c-1.921 4.537-2.095 8.901-2.095 14.836v18.851c0 12.744-3.142 21.995-12.743 26.01 8.553 4.014 12.568 12.22 12.568 24.786v9.603c0 18.852-8.553 28.104-28.453 28.104zm19.201-17.457h9.251c6.808 0 9.774-3.839 9.774-12.567v-12.044c0-9.777-4.364-12.919-11.521-12.919h-7.504z" fill="url(#j)"/></g><g clip-path="url(#at)"><path d="m420.35 101.28h19.201v122.19h-19.201z" fill="url(#i)"/></g><g clip-path="url(#as)"><path d="m453.52 223.47v-122.19h52.367v17.453h-33.165v35.785h26.357v17.457h-26.357v34.038h33.165v17.457z" fill="url(#g)"/></g><g clip-path="url(#ar)"><path d="m561.39 223.47v-73.14l-19.726 73.14h-24.088v-122.19h17.281v88.501l23.913-88.501h19.728v122.19z" fill="url(#f)"/></g><g clip-path="url(#aq)"><path d="m590.71 194.14v-63.539c0-19.549 9.774-30.721 28.627-30.721s28.628 11.172 28.628 30.721v16.235h-18.153v-17.456c0-8.728-3.841-11.871-9.951-11.871-6.111 0-9.949 3.143-9.949 11.871v65.984c0 8.727 3.838 12.044 9.949 12.044 6.11 0 9.951-3.317 9.951-12.044v-13.092h18.153v11.868c0 19.551-9.775 30.723-28.628 30.723s-28.627-11.172-28.627-30.723" fill="url(#e)"/></g><g clip-path="url(#ap)"><path d="m659.66 223.47v-122.19h52.369v17.453h-33.165v35.785h26.358v17.457h-26.358v34.038h33.165v17.457z" fill="url(#d)"/></g><g clip-path="url(#ao)"><path d="m222.9 90.467v-38.696h7.761v14.033h7.043c4.447 0 7.946 1.124 10.499 3.375 2.55 2.249 3.827 5.225 3.827 8.928 0 3.704-1.277 6.689-3.827 8.956-2.553 2.271-6.052 3.404-10.499 3.404zm7.761-5.98h7.043c2.179 0 3.822-0.609 4.93-1.821 1.107-1.214 1.661-2.75 1.661-4.611 0-1.826-0.558-3.325-1.673-4.504-1.117-1.179-2.758-1.769-4.918-1.769h-7.043z" fill="url(#aa)"/></g><g clip-path="url(#an)"><path d="m266.49 86.36c-2.966-3.109-4.449-7.029-4.449-11.759v-6.964c0-4.75 1.488-8.673 4.464-11.773 2.976-3.102 6.857-4.652 11.64-4.652 4.801 0 8.7 1.545 11.694 4.638 2.995 3.092 4.493 7.02 4.493 11.787v6.964c0 4.73-1.507 8.65-4.519 11.759-3.014 3.109-6.919 4.663-11.721 4.663-4.765 0-8.632-1.554-11.602-4.663m5.489-26.217c-1.471 1.929-2.206 4.427-2.206 7.494v7.016c0 3.012 0.732 5.484 2.194 7.414 1.462 1.933 3.504 2.898 6.125 2.898 2.658 0 4.741-0.965 6.245-2.898 1.507-1.93 2.26-4.402 2.26-7.414v-7.016c0-3.067-0.744-5.565-2.232-7.494-1.487-1.934-3.563-2.898-6.22-2.898-2.638 0-4.695 0.964-6.166 2.898" fill="url(#z)"/></g><g clip-path="url(#al)"><path d="m309.38 86.36c-2.967-3.109-4.45-7.029-4.45-11.759v-6.964c0-4.75 1.488-8.673 4.464-11.773 2.976-3.102 6.857-4.652 11.64-4.652 4.801 0 8.699 1.545 11.695 4.638 2.995 3.092 4.492 7.02 4.492 11.787v6.964c0 4.73-1.507 8.65-4.519 11.759-3.014 3.109-6.919 4.663-11.72 4.663-4.767 0-8.634-1.554-11.602-4.663m5.488-26.217c-1.471 1.929-2.206 4.427-2.206 7.494v7.016c0 3.012 0.732 5.484 2.194 7.414 1.462 1.933 3.504 2.898 6.126 2.898 2.657 0 4.739-0.965 6.244-2.898 1.507-1.93 2.261-4.402 2.261-7.414v-7.016c0-3.067-0.745-5.565-2.232-7.494-1.489-1.934-3.563-2.898-6.221-2.898-2.639 0-4.694 0.964-6.166 2.898" fill="url(#y)"/></g><g clip-path="url(#ak)"><path d="m348.81 90.467v-38.696h25.088v5.954h-17.328v32.742z" fill="url(#x)"/></g><g clip-path="url(#aj)"><path d="m407.77 88.394c-1.877-1.754-2.816-4.245-2.816-7.468 0-1.364 0.283-2.707 0.851-4.026 0.566-1.322 1.435-2.779 2.605-4.374-2.323-1.719-4.045-3.335-5.17-4.849-1.124-1.514-1.688-3.344-1.688-5.489 0-3.26 1.144-5.904 3.428-7.933 2.286-2.028 5.36-3.043 9.223-3.043 1.825 0 3.534 0.245 5.129 0.731 1.595 0.488 3.145 1.218 4.652 2.193l2.046-2.365h8.61l0.055 0.133-5.344 6.244c1.329 1.614 2.308 3.465 2.938 5.555 0.627 2.091 0.943 4.395 0.943 6.909h-6.192c0-1.38-0.178-2.693-0.532-3.931-0.354-1.241-0.851-2.384-1.487-3.43l-7.177 8.372 2.713 1.913c1.468 1.153 2.581 2.401 3.334 3.749 0.752 1.345 1.13 2.94 1.13 4.782 0 2.482-0.882 4.595-2.646 6.34-1.762 1.744-4.053 2.616-6.87 2.616-3.278 0-5.856-0.876-7.735-2.629m4.652-9.674c-0.354 0.78-0.532 1.541-0.532 2.285 0 1.134 0.302 2.091 0.906 2.871 0.601 0.78 1.433 1.17 2.497 1.17 1.027 0 1.834-0.342 2.418-1.025 0.585-0.682 0.877-1.474 0.877-2.377 0-0.799-0.173-1.533-0.518-2.208-0.345-0.672-1.015-1.329-2.006-1.966l-2.021-1.302c-0.727 0.922-1.267 1.773-1.621 2.552m-1.647-20.026c-0.974 1.017-1.462 2.316-1.462 3.894 0 0.796 0.195 1.602 0.585 2.417 0.39 0.816 1.108 1.647 2.154 2.499l0.237 0.185 7.842-9.087c-0.87-0.48-1.773-0.839-2.713-1.077-0.938-0.24-1.877-0.359-2.816-0.359-1.578 0-2.853 0.509-3.827 1.528" fill="url(#w)"/></g><g clip-path="url(#ai)"><path d="m467.13 88.007c-2.605-2.011-3.908-4.601-3.908-7.772 0-3.154 1.156-5.643 3.468-7.469 2.313-1.825 5.701-3.411 10.167-4.757 2.605-0.798 4.426-1.648 5.462-2.552s1.555-2.099 1.555-3.587c0-1.452-0.547-2.615-1.636-3.483-1.088-0.867-2.672-1.302-4.744-1.302-2.303 0-4.129 0.542-5.474 1.621-1.348 1.082-2.021 2.765-2.021 5.052h-7.52l-0.053-0.16c-0.09-4.112 1.36-7.202 4.345-9.277 2.985-2.072 6.558-3.109 10.723-3.109 4.252 0 7.673 0.957 10.259 2.871 2.586 1.913 3.881 4.526 3.881 7.84 0 3.17-1.116 5.728-3.348 7.668-2.232 1.939-5.477 3.512-9.729 4.718-2.781 0.939-4.741 1.827-5.874 2.669-1.134 0.841-1.7 1.919-1.7 3.23 0 1.436 0.523 2.613 1.569 3.535 1.044 0.92 2.524 1.381 4.438 1.381 2.108 0 3.746-0.519 4.915-1.554 1.17-1.037 1.755-2.521 1.755-4.453h7.52l0.055 0.16c0.088 3.508-1.174 6.344-3.786 8.505-2.615 2.162-6.066 3.241-10.352 3.241-4.041 0-7.364-1.005-9.967-3.016" fill="url(#v)"/></g><g clip-path="url(#ah)"><path d="m502.79 90.467v-38.696h7.762v14.033h7.042c4.447 0 7.946 1.124 10.5 3.375 2.55 2.249 3.826 5.225 3.826 8.928 0 3.704-1.276 6.689-3.826 8.956-2.554 2.271-6.053 3.404-10.5 3.404zm7.762-5.98h7.042c2.18 0 3.822-0.609 4.93-1.821 1.107-1.214 1.662-2.75 1.662-4.611 0-1.826-0.559-3.325-1.674-4.504-1.117-1.179-2.757-1.769-4.918-1.769h-7.042z" fill="url(#u)"/></g><g clip-path="url(#ag)"><path d="m548.16 90.467-13.05-38.696h8.105l2.606 8.345h12.545l2.631-8.345h8.106l-12.997 38.696zm3.881-10.632h0.159l4.278-13.634h-8.744z" fill="url(#t)"/></g><g clip-path="url(#af)"><path d="m79.975 71.474c0-0.703 51.965-1.327 131.75-1.709v3.419c-79.781-0.381-131.75-1.005-131.75-1.71" fill="url(#s)"/></g><g clip-path="url(#ae)"><path d="m575.61 69.743c82.416 0.38 136.42 1.014 136.42 1.731 0 0.719-54.002 1.352-136.42 1.732z" fill="url(#r)"/></g></g></svg>
